# WaveFront *.obj file (generated by Autodesk ATF)

mtllib Simplified_Single_Ankle.mtl

g Body1

v -7.100000 5.700000 -2.550000
v -7.100000 5.700000 2.550000
v -7.140889 5.389417 -2.550000
v -7.140889 5.389417 2.550000
v -7.260770 5.100000 -2.550000
v -7.260770 5.100000 2.550000
v -7.451472 4.851472 -2.550000
v -7.451472 4.851472 2.550000
v -0.900000 5.700000 2.550000
v -0.900000 5.700000 -2.550000
v -0.863632 5.406809 2.550000
v -0.863632 5.406809 -2.550000
v -0.756732 5.131390 2.550000
v -0.756732 5.131390 -2.550000
v -0.585780 4.890436 2.550000
v -0.585780 4.890436 -2.550000
v -0.361137 4.698552 2.550000
v -0.361137 4.698552 -2.550000
v -0.096421 4.567370 2.550000
v -0.096421 4.567370 -2.550000
v -9.100000 1.200000 -2.550000
v -9.100000 1.200000 2.550000
v 0.000000 1.200000 -2.550000
v 0.000000 1.200000 2.550000
v 9.100000 1.200000 -2.550000
v 9.100000 1.200000 2.550000
v 9.100000 1.348623 2.550000
v 9.100000 1.348623 -2.550000
v -9.100000 3.202944 2.550000
v -9.100000 3.202944 -2.550000
v -9.929410 0.000000 -3.732963
v -9.929410 2.100000 -3.732963
v -9.800000 0.000000 -3.750000
v -9.897545 4.102455 -3.740393
v -9.800000 4.200000 -3.750000
v -10.050000 2.100000 -3.683013
v -10.050000 0.000000 -3.683013
v -10.153553 2.100000 -3.603553
v -10.153553 0.000000 -3.603553
v -10.233013 2.100000 -3.500000
v -10.233013 0.000000 -3.500000
v -10.282963 2.100000 -3.379410
v -10.282963 0.000000 -3.379410
v -10.297592 3.702408 -3.299009
v -10.300000 0.000000 -3.250000
v -10.300000 3.700000 -3.250000
v -10.290393 3.709607 -3.347545
v -10.261940 3.738060 -3.441342
v -10.215735 3.784265 -3.527785
v -10.153553 3.846447 -3.603553
v -10.077785 3.922215 -3.665735
v -9.991342 4.008658 -3.711940
v -0.250000 0.000000 -3.750000
v 0.300000 5.700000 -3.750000
v 9.300000 2.550000 -3.750000
v -8.300000 5.700000 -3.750000
v 9.300000 0.000000 -3.750000
v -10.300000 3.700000 3.250000
v -9.800000 4.200000 3.750000
v -9.897545 4.102455 3.740393
v -9.991342 4.008658 3.711940
v -10.077785 3.922215 3.665735
v -10.153553 3.846447 3.603553
v -10.215735 3.784265 3.527785
v -10.261940 3.738060 3.441342
v -10.290393 3.709607 3.347545
v -10.297592 3.702408 3.299009
v -8.300000 5.700000 3.750000
v -10.282963 0.000000 3.379410
v -10.282963 2.100000 3.379410
v -10.300000 0.000000 3.250000
v -10.233013 2.100000 3.500000
v -10.233013 0.000000 3.500000
v -10.153553 2.100000 3.603553
v -10.153553 0.000000 3.603553
v -10.050000 2.100000 3.683013
v -10.050000 0.000000 3.683013
v -9.929410 2.100000 3.732963
v -9.929410 0.000000 3.732963
v -9.800000 0.000000 3.750000
v -0.250000 0.000000 3.750000
v 0.300000 5.700000 3.750000
v 9.300000 0.000000 3.750000
v 9.300000 2.550000 3.750000
v 9.558819 2.459413 3.715926
v 9.558819 0.000000 3.715926
v 9.800000 2.375000 3.616025
v 9.800000 0.000000 3.616025
v 10.007107 2.302513 3.457107
v 10.007107 0.000000 3.457107
v 10.166025 2.246891 3.250000
v 10.166025 0.000000 3.250000
v 10.265926 2.211926 3.008819
v 10.265926 0.000000 3.008819
v 10.300000 2.200000 2.750000
v 10.300000 0.000000 2.750000
v 10.300000 2.200000 -2.750000
v 10.265926 2.211926 -3.008819
v 10.166025 2.246891 -3.250000
v 10.007107 2.302513 -3.457107
v 9.800000 2.375000 -3.616025
v 9.558819 2.459413 -3.715926
v 10.300000 0.000000 -2.750000
v 10.265926 0.000000 -3.008819
v 10.166025 0.000000 -3.250000
v 10.007107 0.000000 -3.457107
v 9.800000 0.000000 -3.616025
v 9.558819 0.000000 -3.715926
usemtl 160,160,160
f 1 2 3
f 3 2 4
f 3 4 5
f 5 4 6
f 5 6 7
f 7 6 8
f 9 10 11
f 11 10 12
f 11 12 13
f 13 12 14
f 13 14 15
f 15 14 16
f 15 16 17
f 17 16 18
f 17 18 19
f 19 18 20
f 21 22 23
f 23 22 24
f 23 24 25
f 25 24 26
f 26 27 25
f 25 27 28
f 29 22 30
f 30 22 21
f 28 27 20
f 20 27 19
f 22 29 24
f 24 29 8
f 24 8 17
f 17 8 15
f 15 8 6
f 15 6 13
f 13 6 4
f 13 4 11
f 11 4 2
f 11 2 9
f 17 19 24
f 24 19 27
f 24 27 26
f 7 8 30
f 30 8 29
f 21 23 30
f 30 23 7
f 7 23 18
f 7 18 16
f 25 28 23
f 23 28 20
f 23 20 18
f 7 16 5
f 5 16 14
f 5 14 3
f 3 14 12
f 3 12 1
f 1 12 10
f 31 32 33
f 33 32 34
f 33 34 35
f 32 31 36
f 36 31 37
f 36 37 38
f 38 37 39
f 38 39 40
f 40 39 41
f 40 41 42
f 42 41 43
f 42 43 44
f 44 43 45
f 44 45 46
f 44 47 42
f 42 47 48
f 42 48 40
f 40 48 49
f 40 49 38
f 38 49 50
f 38 50 51
f 38 51 36
f 36 51 52
f 36 52 32
f 32 52 34
f 33 35 53
f 53 35 54
f 53 54 55
f 35 56 54
f 55 57 53
f 34 46 35
f 35 46 58
f 35 58 59
f 59 58 60
f 60 58 61
f 61 58 62
f 62 58 63
f 63 58 64
f 64 58 65
f 65 58 66
f 66 58 67
f 34 52 46
f 46 52 51
f 46 51 50
f 50 49 46
f 46 49 48
f 46 48 47
f 47 44 46
f 68 56 59
f 59 56 35
f 69 70 71
f 71 70 67
f 71 67 58
f 70 69 72
f 72 69 73
f 72 73 74
f 74 73 75
f 74 75 76
f 76 75 77
f 76 77 78
f 78 77 79
f 78 79 80
f 80 59 78
f 78 59 60
f 78 60 61
f 78 61 76
f 76 61 62
f 76 62 74
f 74 62 63
f 74 63 64
f 74 64 72
f 72 64 65
f 72 65 70
f 70 65 66
f 70 66 67
f 80 81 59
f 59 81 82
f 59 82 68
f 83 84 81
f 81 84 82
f 84 83 85
f 85 83 86
f 85 86 87
f 87 86 88
f 87 88 89
f 89 88 90
f 89 90 91
f 91 90 92
f 91 92 93
f 93 92 94
f 93 94 95
f 95 94 96
f 85 87 84
f 84 87 89
f 84 89 91
f 91 93 84
f 84 93 95
f 84 95 82
f 82 95 97
f 82 97 54
f 54 97 55
f 55 97 98
f 55 98 99
f 99 100 55
f 55 100 101
f 55 101 102
f 103 104 97
f 97 104 98
f 98 104 105
f 98 105 99
f 99 105 106
f 99 106 100
f 100 106 107
f 100 107 101
f 101 107 108
f 101 108 102
f 102 108 57
f 102 57 55
f 46 45 58
f 58 45 71
f 95 96 97
f 97 96 103
f 1 10 54
f 54 10 9
f 54 9 82
f 82 9 2
f 82 2 68
f 68 2 1
f 68 1 56
f 56 1 54
f 43 33 45
f 45 33 53
f 45 53 81
f 81 53 103
f 81 103 96
f 43 41 33
f 33 41 39
f 33 39 37
f 37 31 33
f 53 57 103
f 103 57 104
f 104 57 105
f 105 57 106
f 106 57 107
f 107 57 108
f 81 96 83
f 83 96 94
f 83 94 92
f 92 90 83
f 83 90 88
f 83 88 86
f 45 81 71
f 71 81 80
f 71 80 69
f 69 80 73
f 73 80 75
f 75 80 77
f 77 80 79
# 108 vertices
# 0 texture params
# 0 normals
# 212 facets

# 1 groups
