ISO-10303-21;
HEADER;
/* Generated by software containing ST-Developer
 * from STEP Tools, Inc. (www.steptools.com) 
 */

FILE_DESCRIPTION(
/* description */ ('STEP AP214'),
/* implementation_level */ '2;1');

FILE_NAME(
/* name */ '',
/* time_stamp */ '2026-04-03T15:57:56+08:00',
/* author */ (''),
/* organization */ (''),
/* preprocessor_version */ 'ST-DEVELOPER v20.1',
/* originating_system */ 'Autodesk Translation Framework v14.24.0.0',
/* authorisation */ '');

FILE_SCHEMA (('AUTOMOTIVE_DESIGN { 1 0 10303 214 3 1 1 }'));
ENDSEC;

DATA;
#10=MECHANICAL_DESIGN_GEOMETRIC_PRESENTATION_REPRESENTATION('',(#13),#1405);
#11=SHAPE_REPRESENTATION_RELATIONSHIP('SRR','None',#1412,#12);
#12=ADVANCED_BREP_SHAPE_REPRESENTATION('',(#14),#1404);
#13=STYLED_ITEM('',(#1422),#14);
#14=MANIFOLD_SOLID_BREP('\X2\5B9E4F53\X0\1',#833);
#15=FACE_BOUND('',#110,.T.);
#16=FACE_BOUND('',#112,.T.);
#17=FACE_BOUND('',#114,.T.);
#18=FACE_BOUND('',#116,.T.);
#19=FACE_BOUND('',#126,.T.);
#20=FACE_BOUND('',#127,.T.);
#21=FACE_BOUND('',#128,.T.);
#22=FACE_BOUND('',#129,.T.);
#23=FACE_BOUND('',#130,.T.);
#24=FACE_BOUND('',#131,.T.);
#25=FACE_BOUND('',#155,.T.);
#26=FACE_BOUND('',#156,.T.);
#27=FACE_BOUND('',#157,.T.);
#28=FACE_BOUND('',#158,.T.);
#29=FACE_BOUND('',#159,.T.);
#30=FACE_BOUND('',#160,.T.);
#31=PLANE('',#871);
#32=PLANE('',#872);
#33=PLANE('',#873);
#34=PLANE('',#874);
#35=PLANE('',#875);
#36=PLANE('',#876);
#37=PLANE('',#877);
#38=PLANE('',#878);
#39=PLANE('',#879);
#40=PLANE('',#880);
#41=PLANE('',#881);
#42=PLANE('',#882);
#43=PLANE('',#883);
#44=PLANE('',#896);
#45=PLANE('',#899);
#46=PLANE('',#902);
#47=PLANE('',#903);
#48=PLANE('',#906);
#49=PLANE('',#909);
#50=PLANE('',#910);
#51=PLANE('',#913);
#52=PLANE('',#916);
#53=PLANE('',#919);
#54=PLANE('',#922);
#55=PLANE('',#925);
#56=PLANE('',#926);
#57=FACE_OUTER_BOUND('',#101,.T.);
#58=FACE_OUTER_BOUND('',#102,.T.);
#59=FACE_OUTER_BOUND('',#103,.T.);
#60=FACE_OUTER_BOUND('',#104,.T.);
#61=FACE_OUTER_BOUND('',#105,.T.);
#62=FACE_OUTER_BOUND('',#106,.T.);
#63=FACE_OUTER_BOUND('',#107,.T.);
#64=FACE_OUTER_BOUND('',#108,.T.);
#65=FACE_OUTER_BOUND('',#109,.T.);
#66=FACE_OUTER_BOUND('',#111,.T.);
#67=FACE_OUTER_BOUND('',#113,.T.);
#68=FACE_OUTER_BOUND('',#115,.T.);
#69=FACE_OUTER_BOUND('',#117,.T.);
#70=FACE_OUTER_BOUND('',#118,.T.);
#71=FACE_OUTER_BOUND('',#119,.T.);
#72=FACE_OUTER_BOUND('',#120,.T.);
#73=FACE_OUTER_BOUND('',#121,.T.);
#74=FACE_OUTER_BOUND('',#122,.T.);
#75=FACE_OUTER_BOUND('',#123,.T.);
#76=FACE_OUTER_BOUND('',#124,.T.);
#77=FACE_OUTER_BOUND('',#125,.T.);
#78=FACE_OUTER_BOUND('',#132,.T.);
#79=FACE_OUTER_BOUND('',#133,.T.);
#80=FACE_OUTER_BOUND('',#134,.T.);
#81=FACE_OUTER_BOUND('',#135,.T.);
#82=FACE_OUTER_BOUND('',#136,.T.);
#83=FACE_OUTER_BOUND('',#137,.T.);
#84=FACE_OUTER_BOUND('',#138,.T.);
#85=FACE_OUTER_BOUND('',#139,.T.);
#86=FACE_OUTER_BOUND('',#140,.T.);
#87=FACE_OUTER_BOUND('',#141,.T.);
#88=FACE_OUTER_BOUND('',#142,.T.);
#89=FACE_OUTER_BOUND('',#143,.T.);
#90=FACE_OUTER_BOUND('',#144,.T.);
#91=FACE_OUTER_BOUND('',#145,.T.);
#92=FACE_OUTER_BOUND('',#146,.T.);
#93=FACE_OUTER_BOUND('',#147,.T.);
#94=FACE_OUTER_BOUND('',#148,.T.);
#95=FACE_OUTER_BOUND('',#149,.T.);
#96=FACE_OUTER_BOUND('',#150,.T.);
#97=FACE_OUTER_BOUND('',#151,.T.);
#98=FACE_OUTER_BOUND('',#152,.T.);
#99=FACE_OUTER_BOUND('',#153,.T.);
#100=FACE_OUTER_BOUND('',#154,.T.);
#101=EDGE_LOOP('',(#543,#544,#545,#546));
#102=EDGE_LOOP('',(#547,#548,#549,#550));
#103=EDGE_LOOP('',(#551,#552,#553,#554));
#104=EDGE_LOOP('',(#555,#556,#557,#558));
#105=EDGE_LOOP('',(#559,#560,#561,#562));
#106=EDGE_LOOP('',(#563,#564,#565,#566));
#107=EDGE_LOOP('',(#567,#568,#569,#570));
#108=EDGE_LOOP('',(#571,#572,#573,#574));
#109=EDGE_LOOP('',(#575));
#110=EDGE_LOOP('',(#576));
#111=EDGE_LOOP('',(#577));
#112=EDGE_LOOP('',(#578));
#113=EDGE_LOOP('',(#579));
#114=EDGE_LOOP('',(#580));
#115=EDGE_LOOP('',(#581));
#116=EDGE_LOOP('',(#582));
#117=EDGE_LOOP('',(#583,#584,#585,#586));
#118=EDGE_LOOP('',(#587,#588,#589,#590));
#119=EDGE_LOOP('',(#591,#592,#593,#594));
#120=EDGE_LOOP('',(#595,#596,#597,#598));
#121=EDGE_LOOP('',(#599,#600,#601,#602));
#122=EDGE_LOOP('',(#603,#604,#605,#606));
#123=EDGE_LOOP('',(#607,#608,#609,#610));
#124=EDGE_LOOP('',(#611,#612,#613,#614));
#125=EDGE_LOOP('',(#615,#616,#617,#618,#619,#620,#621,#622,#623,#624,#625,
#626,#627,#628,#629,#630,#631,#632,#633,#634,#635,#636));
#126=EDGE_LOOP('',(#637));
#127=EDGE_LOOP('',(#638));
#128=EDGE_LOOP('',(#639));
#129=EDGE_LOOP('',(#640));
#130=EDGE_LOOP('',(#641,#642,#643,#644));
#131=EDGE_LOOP('',(#645,#646,#647,#648));
#132=EDGE_LOOP('',(#649,#650,#651,#652));
#133=EDGE_LOOP('',(#653,#654,#655,#656));
#134=EDGE_LOOP('',(#657,#658,#659,#660));
#135=EDGE_LOOP('',(#661,#662,#663,#664));
#136=EDGE_LOOP('',(#665,#666,#667,#668));
#137=EDGE_LOOP('',(#669,#670,#671,#672));
#138=EDGE_LOOP('',(#673,#674,#675,#676));
#139=EDGE_LOOP('',(#677,#678,#679,#680));
#140=EDGE_LOOP('',(#681,#682,#683,#684));
#141=EDGE_LOOP('',(#685,#686,#687,#688));
#142=EDGE_LOOP('',(#689,#690,#691,#692));
#143=EDGE_LOOP('',(#693,#694,#695,#696));
#144=EDGE_LOOP('',(#697,#698,#699,#700));
#145=EDGE_LOOP('',(#701,#702,#703,#704));
#146=EDGE_LOOP('',(#705,#706,#707,#708));
#147=EDGE_LOOP('',(#709,#710,#711,#712));
#148=EDGE_LOOP('',(#713,#714,#715,#716));
#149=EDGE_LOOP('',(#717,#718,#719,#720));
#150=EDGE_LOOP('',(#721,#722,#723,#724));
#151=EDGE_LOOP('',(#725,#726,#727,#728));
#152=EDGE_LOOP('',(#729,#730,#731,#732));
#153=EDGE_LOOP('',(#733,#734,#735,#736));
#154=EDGE_LOOP('',(#737,#738,#739,#740,#741,#742,#743,#744,#745,#746,#747,
#748,#749,#750,#751,#752,#753,#754,#755,#756,#757,#758));
#155=EDGE_LOOP('',(#759));
#156=EDGE_LOOP('',(#760));
#157=EDGE_LOOP('',(#761));
#158=EDGE_LOOP('',(#762));
#159=EDGE_LOOP('',(#763,#764,#765,#766));
#160=EDGE_LOOP('',(#767,#768,#769,#770));
#161=LINE('',#1172,#239);
#162=LINE('',#1178,#240);
#163=LINE('',#1184,#241);
#164=LINE('',#1190,#242);
#165=LINE('',#1196,#243);
#166=LINE('',#1202,#244);
#167=LINE('',#1208,#245);
#168=LINE('',#1214,#246);
#169=LINE('',#1223,#247);
#170=LINE('',#1225,#248);
#171=LINE('',#1227,#249);
#172=LINE('',#1228,#250);
#173=LINE('',#1231,#251);
#174=LINE('',#1233,#252);
#175=LINE('',#1234,#253);
#176=LINE('',#1237,#254);
#177=LINE('',#1239,#255);
#178=LINE('',#1240,#256);
#179=LINE('',#1242,#257);
#180=LINE('',#1243,#258);
#181=LINE('',#1247,#259);
#182=LINE('',#1249,#260);
#183=LINE('',#1251,#261);
#184=LINE('',#1252,#262);
#185=LINE('',#1255,#263);
#186=LINE('',#1257,#264);
#187=LINE('',#1258,#265);
#188=LINE('',#1261,#266);
#189=LINE('',#1263,#267);
#190=LINE('',#1264,#268);
#191=LINE('',#1266,#269);
#192=LINE('',#1267,#270);
#193=LINE('',#1273,#271);
#194=LINE('',#1277,#272);
#195=LINE('',#1281,#273);
#196=LINE('',#1285,#274);
#197=LINE('',#1289,#275);
#198=LINE('',#1293,#276);
#199=LINE('',#1295,#277);
#200=LINE('',#1299,#278);
#201=LINE('',#1303,#279);
#202=LINE('',#1305,#280);
#203=LINE('',#1309,#281);
#204=LINE('',#1312,#282);
#205=LINE('',#1315,#283);
#206=LINE('',#1318,#284);
#207=LINE('',#1321,#285);
#208=LINE('',#1322,#286);
#209=LINE('',#1325,#287);
#210=LINE('',#1329,#288);
#211=LINE('',#1330,#289);
#212=LINE('',#1333,#290);
#213=LINE('',#1337,#291);
#214=LINE('',#1338,#292);
#215=LINE('',#1341,#293);
#216=LINE('',#1342,#294);
#217=LINE('',#1345,#295);
#218=LINE('',#1349,#296);
#219=LINE('',#1350,#297);
#220=LINE('',#1353,#298);
#221=LINE('',#1357,#299);
#222=LINE('',#1358,#300);
#223=LINE('',#1361,#301);
#224=LINE('',#1362,#302);
#225=LINE('',#1365,#303);
#226=LINE('',#1369,#304);
#227=LINE('',#1370,#305);
#228=LINE('',#1373,#306);
#229=LINE('',#1377,#307);
#230=LINE('',#1378,#308);
#231=LINE('',#1381,#309);
#232=LINE('',#1385,#310);
#233=LINE('',#1386,#311);
#234=LINE('',#1389,#312);
#235=LINE('',#1393,#313);
#236=LINE('',#1394,#314);
#237=LINE('',#1397,#315);
#238=LINE('',#1400,#316);
#239=VECTOR('',#933,1.8);
#240=VECTOR('',#940,1.1);
#241=VECTOR('',#947,1.8);
#242=VECTOR('',#954,1.1);
#243=VECTOR('',#961,1.8);
#244=VECTOR('',#968,1.1);
#245=VECTOR('',#975,1.8);
#246=VECTOR('',#982,1.1);
#247=VECTOR('',#995,10.);
#248=VECTOR('',#996,10.);
#249=VECTOR('',#997,10.);
#250=VECTOR('',#998,10.);
#251=VECTOR('',#1001,10.);
#252=VECTOR('',#1002,10.);
#253=VECTOR('',#1003,10.);
#254=VECTOR('',#1006,10.);
#255=VECTOR('',#1007,10.);
#256=VECTOR('',#1008,10.);
#257=VECTOR('',#1011,10.);
#258=VECTOR('',#1012,10.);
#259=VECTOR('',#1015,10.);
#260=VECTOR('',#1016,10.);
#261=VECTOR('',#1017,10.);
#262=VECTOR('',#1018,10.);
#263=VECTOR('',#1021,10.);
#264=VECTOR('',#1022,10.);
#265=VECTOR('',#1023,10.);
#266=VECTOR('',#1026,10.);
#267=VECTOR('',#1027,10.);
#268=VECTOR('',#1028,10.);
#269=VECTOR('',#1031,10.);
#270=VECTOR('',#1032,10.);
#271=VECTOR('',#1037,1000.);
#272=VECTOR('',#1040,1000.);
#273=VECTOR('',#1043,1000.);
#274=VECTOR('',#1046,1000.);
#275=VECTOR('',#1049,1000.);
#276=VECTOR('',#1052,1000.);
#277=VECTOR('',#1053,1000.);
#278=VECTOR('',#1056,1000.);
#279=VECTOR('',#1059,1000.);
#280=VECTOR('',#1060,1000.);
#281=VECTOR('',#1063,1000.);
#282=VECTOR('',#1066,1000.);
#283=VECTOR('',#1069,1000.);
#284=VECTOR('',#1072,1000.);
#285=VECTOR('',#1075,1000.);
#286=VECTOR('',#1076,1000.);
#287=VECTOR('',#1079,1000.);
#288=VECTOR('',#1084,1000.);
#289=VECTOR('',#1085,1000.);
#290=VECTOR('',#1088,1000.);
#291=VECTOR('',#1093,1000.);
#292=VECTOR('',#1094,1000.);
#293=VECTOR('',#1097,1000.);
#294=VECTOR('',#1098,1000.);
#295=VECTOR('',#1101,1000.);
#296=VECTOR('',#1106,1000.);
#297=VECTOR('',#1107,1000.);
#298=VECTOR('',#1110,1000.);
#299=VECTOR('',#1115,1000.);
#300=VECTOR('',#1116,1000.);
#301=VECTOR('',#1119,1000.);
#302=VECTOR('',#1120,1000.);
#303=VECTOR('',#1123,1000.);
#304=VECTOR('',#1128,1000.);
#305=VECTOR('',#1129,1000.);
#306=VECTOR('',#1132,1000.);
#307=VECTOR('',#1137,1000.);
#308=VECTOR('',#1138,1000.);
#309=VECTOR('',#1141,1000.);
#310=VECTOR('',#1146,1000.);
#311=VECTOR('',#1147,1000.);
#312=VECTOR('',#1150,1000.);
#313=VECTOR('',#1155,1000.);
#314=VECTOR('',#1156,1000.);
#315=VECTOR('',#1159,1000.);
#316=VECTOR('',#1164,1000.);
#317=CIRCLE('',#848,1.8);
#318=CIRCLE('',#849,1.8);
#319=CIRCLE('',#851,1.1);
#320=CIRCLE('',#852,1.1);
#321=CIRCLE('',#854,1.8);
#322=CIRCLE('',#855,1.8);
#323=CIRCLE('',#857,1.1);
#324=CIRCLE('',#858,1.1);
#325=CIRCLE('',#860,1.8);
#326=CIRCLE('',#861,1.8);
#327=CIRCLE('',#863,1.1);
#328=CIRCLE('',#864,1.1);
#329=CIRCLE('',#866,1.8);
#330=CIRCLE('',#867,1.8);
#331=CIRCLE('',#869,1.1);
#332=CIRCLE('',#870,1.1);
#333=CIRCLE('',#884,99.9999999999938);
#334=CIRCLE('',#885,34.9999999999994);
#335=CIRCLE('',#886,34.9999999999991);
#336=CIRCLE('',#887,100.000000000004);
#337=CIRCLE('',#888,100.000000000004);
#338=CIRCLE('',#889,78.);
#339=CIRCLE('',#890,32.5000000000004);
#340=CIRCLE('',#891,32.4999999999997);
#341=CIRCLE('',#892,78.);
#342=CIRCLE('',#893,99.9999999999938);
#343=CIRCLE('',#895,99.9999999999938);
#344=CIRCLE('',#898,99.9999999999938);
#345=CIRCLE('',#901,78.);
#346=CIRCLE('',#905,32.4999999999997);
#347=CIRCLE('',#908,32.5000000000004);
#348=CIRCLE('',#912,78.);
#349=CIRCLE('',#915,100.000000000004);
#350=CIRCLE('',#918,100.000000000004);
#351=CIRCLE('',#921,34.9999999999991);
#352=CIRCLE('',#924,34.9999999999994);
#353=VERTEX_POINT('',#1169);
#354=VERTEX_POINT('',#1171);
#355=VERTEX_POINT('',#1175);
#356=VERTEX_POINT('',#1177);
#357=VERTEX_POINT('',#1181);
#358=VERTEX_POINT('',#1183);
#359=VERTEX_POINT('',#1187);
#360=VERTEX_POINT('',#1189);
#361=VERTEX_POINT('',#1193);
#362=VERTEX_POINT('',#1195);
#363=VERTEX_POINT('',#1199);
#364=VERTEX_POINT('',#1201);
#365=VERTEX_POINT('',#1205);
#366=VERTEX_POINT('',#1207);
#367=VERTEX_POINT('',#1211);
#368=VERTEX_POINT('',#1213);
#369=VERTEX_POINT('',#1221);
#370=VERTEX_POINT('',#1222);
#371=VERTEX_POINT('',#1224);
#372=VERTEX_POINT('',#1226);
#373=VERTEX_POINT('',#1230);
#374=VERTEX_POINT('',#1232);
#375=VERTEX_POINT('',#1236);
#376=VERTEX_POINT('',#1238);
#377=VERTEX_POINT('',#1245);
#378=VERTEX_POINT('',#1246);
#379=VERTEX_POINT('',#1248);
#380=VERTEX_POINT('',#1250);
#381=VERTEX_POINT('',#1254);
#382=VERTEX_POINT('',#1256);
#383=VERTEX_POINT('',#1260);
#384=VERTEX_POINT('',#1262);
#385=VERTEX_POINT('',#1269);
#386=VERTEX_POINT('',#1270);
#387=VERTEX_POINT('',#1272);
#388=VERTEX_POINT('',#1274);
#389=VERTEX_POINT('',#1276);
#390=VERTEX_POINT('',#1278);
#391=VERTEX_POINT('',#1280);
#392=VERTEX_POINT('',#1282);
#393=VERTEX_POINT('',#1284);
#394=VERTEX_POINT('',#1286);
#395=VERTEX_POINT('',#1288);
#396=VERTEX_POINT('',#1290);
#397=VERTEX_POINT('',#1292);
#398=VERTEX_POINT('',#1294);
#399=VERTEX_POINT('',#1296);
#400=VERTEX_POINT('',#1298);
#401=VERTEX_POINT('',#1300);
#402=VERTEX_POINT('',#1302);
#403=VERTEX_POINT('',#1304);
#404=VERTEX_POINT('',#1306);
#405=VERTEX_POINT('',#1308);
#406=VERTEX_POINT('',#1310);
#407=VERTEX_POINT('',#1314);
#408=VERTEX_POINT('',#1316);
#409=VERTEX_POINT('',#1320);
#410=VERTEX_POINT('',#1324);
#411=VERTEX_POINT('',#1328);
#412=VERTEX_POINT('',#1332);
#413=VERTEX_POINT('',#1336);
#414=VERTEX_POINT('',#1340);
#415=VERTEX_POINT('',#1344);
#416=VERTEX_POINT('',#1348);
#417=VERTEX_POINT('',#1352);
#418=VERTEX_POINT('',#1356);
#419=VERTEX_POINT('',#1360);
#420=VERTEX_POINT('',#1364);
#421=VERTEX_POINT('',#1368);
#422=VERTEX_POINT('',#1372);
#423=VERTEX_POINT('',#1376);
#424=VERTEX_POINT('',#1380);
#425=VERTEX_POINT('',#1384);
#426=VERTEX_POINT('',#1388);
#427=VERTEX_POINT('',#1392);
#428=VERTEX_POINT('',#1396);
#429=EDGE_CURVE('',#353,#353,#317,.T.);
#430=EDGE_CURVE('',#353,#354,#161,.T.);
#431=EDGE_CURVE('',#354,#354,#318,.T.);
#432=EDGE_CURVE('',#355,#355,#319,.T.);
#433=EDGE_CURVE('',#355,#356,#162,.T.);
#434=EDGE_CURVE('',#356,#356,#320,.T.);
#435=EDGE_CURVE('',#357,#357,#321,.T.);
#436=EDGE_CURVE('',#357,#358,#163,.T.);
#437=EDGE_CURVE('',#358,#358,#322,.T.);
#438=EDGE_CURVE('',#359,#359,#323,.T.);
#439=EDGE_CURVE('',#359,#360,#164,.T.);
#440=EDGE_CURVE('',#360,#360,#324,.T.);
#441=EDGE_CURVE('',#361,#361,#325,.T.);
#442=EDGE_CURVE('',#361,#362,#165,.T.);
#443=EDGE_CURVE('',#362,#362,#326,.T.);
#444=EDGE_CURVE('',#363,#363,#327,.T.);
#445=EDGE_CURVE('',#363,#364,#166,.T.);
#446=EDGE_CURVE('',#364,#364,#328,.T.);
#447=EDGE_CURVE('',#365,#365,#329,.T.);
#448=EDGE_CURVE('',#365,#366,#167,.T.);
#449=EDGE_CURVE('',#366,#366,#330,.T.);
#450=EDGE_CURVE('',#367,#367,#331,.T.);
#451=EDGE_CURVE('',#367,#368,#168,.T.);
#452=EDGE_CURVE('',#368,#368,#332,.T.);
#453=EDGE_CURVE('',#369,#370,#169,.T.);
#454=EDGE_CURVE('',#371,#369,#170,.T.);
#455=EDGE_CURVE('',#372,#371,#171,.T.);
#456=EDGE_CURVE('',#372,#370,#172,.T.);
#457=EDGE_CURVE('',#370,#373,#173,.T.);
#458=EDGE_CURVE('',#374,#372,#174,.T.);
#459=EDGE_CURVE('',#374,#373,#175,.T.);
#460=EDGE_CURVE('',#373,#375,#176,.T.);
#461=EDGE_CURVE('',#376,#374,#177,.T.);
#462=EDGE_CURVE('',#376,#375,#178,.T.);
#463=EDGE_CURVE('',#375,#369,#179,.T.);
#464=EDGE_CURVE('',#371,#376,#180,.T.);
#465=EDGE_CURVE('',#377,#378,#181,.T.);
#466=EDGE_CURVE('',#379,#377,#182,.T.);
#467=EDGE_CURVE('',#380,#379,#183,.T.);
#468=EDGE_CURVE('',#380,#378,#184,.T.);
#469=EDGE_CURVE('',#378,#381,#185,.T.);
#470=EDGE_CURVE('',#382,#380,#186,.T.);
#471=EDGE_CURVE('',#382,#381,#187,.T.);
#472=EDGE_CURVE('',#381,#383,#188,.T.);
#473=EDGE_CURVE('',#384,#382,#189,.T.);
#474=EDGE_CURVE('',#384,#383,#190,.T.);
#475=EDGE_CURVE('',#383,#377,#191,.T.);
#476=EDGE_CURVE('',#379,#384,#192,.T.);
#477=EDGE_CURVE('',#385,#386,#333,.T.);
#478=EDGE_CURVE('',#387,#385,#193,.T.);
#479=EDGE_CURVE('',#388,#387,#334,.T.);
#480=EDGE_CURVE('',#389,#388,#194,.T.);
#481=EDGE_CURVE('',#390,#389,#335,.T.);
#482=EDGE_CURVE('',#391,#390,#195,.T.);
#483=EDGE_CURVE('',#392,#391,#336,.T.);
#484=EDGE_CURVE('',#393,#392,#196,.T.);
#485=EDGE_CURVE('',#394,#393,#337,.T.);
#486=EDGE_CURVE('',#395,#394,#197,.T.);
#487=EDGE_CURVE('',#396,#395,#338,.T.);
#488=EDGE_CURVE('',#397,#396,#198,.T.);
#489=EDGE_CURVE('',#398,#397,#199,.T.);
#490=EDGE_CURVE('',#399,#398,#339,.T.);
#491=EDGE_CURVE('',#400,#399,#200,.T.);
#492=EDGE_CURVE('',#401,#400,#340,.T.);
#493=EDGE_CURVE('',#402,#401,#201,.T.);
#494=EDGE_CURVE('',#403,#402,#202,.T.);
#495=EDGE_CURVE('',#404,#403,#341,.T.);
#496=EDGE_CURVE('',#405,#404,#203,.T.);
#497=EDGE_CURVE('',#406,#405,#342,.T.);
#498=EDGE_CURVE('',#386,#406,#204,.T.);
#499=EDGE_CURVE('',#407,#386,#205,.T.);
#500=EDGE_CURVE('',#408,#407,#343,.T.);
#501=EDGE_CURVE('',#408,#385,#206,.T.);
#502=EDGE_CURVE('',#409,#406,#207,.T.);
#503=EDGE_CURVE('',#407,#409,#208,.T.);
#504=EDGE_CURVE('',#410,#405,#209,.T.);
#505=EDGE_CURVE('',#409,#410,#344,.T.);
#506=EDGE_CURVE('',#411,#404,#210,.T.);
#507=EDGE_CURVE('',#410,#411,#211,.T.);
#508=EDGE_CURVE('',#412,#403,#212,.T.);
#509=EDGE_CURVE('',#411,#412,#345,.T.);
#510=EDGE_CURVE('',#413,#402,#213,.T.);
#511=EDGE_CURVE('',#412,#413,#214,.T.);
#512=EDGE_CURVE('',#414,#401,#215,.T.);
#513=EDGE_CURVE('',#413,#414,#216,.T.);
#514=EDGE_CURVE('',#415,#400,#217,.T.);
#515=EDGE_CURVE('',#414,#415,#346,.T.);
#516=EDGE_CURVE('',#416,#399,#218,.T.);
#517=EDGE_CURVE('',#415,#416,#219,.T.);
#518=EDGE_CURVE('',#417,#398,#220,.T.);
#519=EDGE_CURVE('',#416,#417,#347,.T.);
#520=EDGE_CURVE('',#418,#397,#221,.T.);
#521=EDGE_CURVE('',#417,#418,#222,.T.);
#522=EDGE_CURVE('',#419,#396,#223,.T.);
#523=EDGE_CURVE('',#418,#419,#224,.T.);
#524=EDGE_CURVE('',#420,#395,#225,.T.);
#525=EDGE_CURVE('',#419,#420,#348,.T.);
#526=EDGE_CURVE('',#421,#394,#226,.T.);
#527=EDGE_CURVE('',#420,#421,#227,.T.);
#528=EDGE_CURVE('',#422,#393,#228,.T.);
#529=EDGE_CURVE('',#421,#422,#349,.T.);
#530=EDGE_CURVE('',#423,#392,#229,.T.);
#531=EDGE_CURVE('',#422,#423,#230,.T.);
#532=EDGE_CURVE('',#424,#391,#231,.T.);
#533=EDGE_CURVE('',#423,#424,#350,.T.);
#534=EDGE_CURVE('',#425,#390,#232,.T.);
#535=EDGE_CURVE('',#424,#425,#233,.T.);
#536=EDGE_CURVE('',#426,#389,#234,.T.);
#537=EDGE_CURVE('',#425,#426,#351,.T.);
#538=EDGE_CURVE('',#427,#388,#235,.T.);
#539=EDGE_CURVE('',#426,#427,#236,.T.);
#540=EDGE_CURVE('',#428,#387,#237,.T.);
#541=EDGE_CURVE('',#427,#428,#352,.T.);
#542=EDGE_CURVE('',#428,#408,#238,.T.);
#543=ORIENTED_EDGE('',*,*,#429,.F.);
#544=ORIENTED_EDGE('',*,*,#430,.T.);
#545=ORIENTED_EDGE('',*,*,#431,.T.);
#546=ORIENTED_EDGE('',*,*,#430,.F.);
#547=ORIENTED_EDGE('',*,*,#432,.F.);
#548=ORIENTED_EDGE('',*,*,#433,.T.);
#549=ORIENTED_EDGE('',*,*,#434,.F.);
#550=ORIENTED_EDGE('',*,*,#433,.F.);
#551=ORIENTED_EDGE('',*,*,#435,.F.);
#552=ORIENTED_EDGE('',*,*,#436,.T.);
#553=ORIENTED_EDGE('',*,*,#437,.T.);
#554=ORIENTED_EDGE('',*,*,#436,.F.);
#555=ORIENTED_EDGE('',*,*,#438,.F.);
#556=ORIENTED_EDGE('',*,*,#439,.T.);
#557=ORIENTED_EDGE('',*,*,#440,.F.);
#558=ORIENTED_EDGE('',*,*,#439,.F.);
#559=ORIENTED_EDGE('',*,*,#441,.F.);
#560=ORIENTED_EDGE('',*,*,#442,.T.);
#561=ORIENTED_EDGE('',*,*,#443,.T.);
#562=ORIENTED_EDGE('',*,*,#442,.F.);
#563=ORIENTED_EDGE('',*,*,#444,.F.);
#564=ORIENTED_EDGE('',*,*,#445,.T.);
#565=ORIENTED_EDGE('',*,*,#446,.F.);
#566=ORIENTED_EDGE('',*,*,#445,.F.);
#567=ORIENTED_EDGE('',*,*,#447,.F.);
#568=ORIENTED_EDGE('',*,*,#448,.T.);
#569=ORIENTED_EDGE('',*,*,#449,.T.);
#570=ORIENTED_EDGE('',*,*,#448,.F.);
#571=ORIENTED_EDGE('',*,*,#450,.F.);
#572=ORIENTED_EDGE('',*,*,#451,.T.);
#573=ORIENTED_EDGE('',*,*,#452,.F.);
#574=ORIENTED_EDGE('',*,*,#451,.F.);
#575=ORIENTED_EDGE('',*,*,#443,.F.);
#576=ORIENTED_EDGE('',*,*,#444,.T.);
#577=ORIENTED_EDGE('',*,*,#449,.F.);
#578=ORIENTED_EDGE('',*,*,#450,.T.);
#579=ORIENTED_EDGE('',*,*,#431,.F.);
#580=ORIENTED_EDGE('',*,*,#432,.T.);
#581=ORIENTED_EDGE('',*,*,#437,.F.);
#582=ORIENTED_EDGE('',*,*,#438,.T.);
#583=ORIENTED_EDGE('',*,*,#453,.F.);
#584=ORIENTED_EDGE('',*,*,#454,.F.);
#585=ORIENTED_EDGE('',*,*,#455,.F.);
#586=ORIENTED_EDGE('',*,*,#456,.T.);
#587=ORIENTED_EDGE('',*,*,#457,.F.);
#588=ORIENTED_EDGE('',*,*,#456,.F.);
#589=ORIENTED_EDGE('',*,*,#458,.F.);
#590=ORIENTED_EDGE('',*,*,#459,.T.);
#591=ORIENTED_EDGE('',*,*,#460,.F.);
#592=ORIENTED_EDGE('',*,*,#459,.F.);
#593=ORIENTED_EDGE('',*,*,#461,.F.);
#594=ORIENTED_EDGE('',*,*,#462,.T.);
#595=ORIENTED_EDGE('',*,*,#463,.F.);
#596=ORIENTED_EDGE('',*,*,#462,.F.);
#597=ORIENTED_EDGE('',*,*,#464,.F.);
#598=ORIENTED_EDGE('',*,*,#454,.T.);
#599=ORIENTED_EDGE('',*,*,#465,.F.);
#600=ORIENTED_EDGE('',*,*,#466,.F.);
#601=ORIENTED_EDGE('',*,*,#467,.F.);
#602=ORIENTED_EDGE('',*,*,#468,.T.);
#603=ORIENTED_EDGE('',*,*,#469,.F.);
#604=ORIENTED_EDGE('',*,*,#468,.F.);
#605=ORIENTED_EDGE('',*,*,#470,.F.);
#606=ORIENTED_EDGE('',*,*,#471,.T.);
#607=ORIENTED_EDGE('',*,*,#472,.F.);
#608=ORIENTED_EDGE('',*,*,#471,.F.);
#609=ORIENTED_EDGE('',*,*,#473,.F.);
#610=ORIENTED_EDGE('',*,*,#474,.T.);
#611=ORIENTED_EDGE('',*,*,#475,.F.);
#612=ORIENTED_EDGE('',*,*,#474,.F.);
#613=ORIENTED_EDGE('',*,*,#476,.F.);
#614=ORIENTED_EDGE('',*,*,#466,.T.);
#615=ORIENTED_EDGE('',*,*,#477,.F.);
#616=ORIENTED_EDGE('',*,*,#478,.F.);
#617=ORIENTED_EDGE('',*,*,#479,.F.);
#618=ORIENTED_EDGE('',*,*,#480,.F.);
#619=ORIENTED_EDGE('',*,*,#481,.F.);
#620=ORIENTED_EDGE('',*,*,#482,.F.);
#621=ORIENTED_EDGE('',*,*,#483,.F.);
#622=ORIENTED_EDGE('',*,*,#484,.F.);
#623=ORIENTED_EDGE('',*,*,#485,.F.);
#624=ORIENTED_EDGE('',*,*,#486,.F.);
#625=ORIENTED_EDGE('',*,*,#487,.F.);
#626=ORIENTED_EDGE('',*,*,#488,.F.);
#627=ORIENTED_EDGE('',*,*,#489,.F.);
#628=ORIENTED_EDGE('',*,*,#490,.F.);
#629=ORIENTED_EDGE('',*,*,#491,.F.);
#630=ORIENTED_EDGE('',*,*,#492,.F.);
#631=ORIENTED_EDGE('',*,*,#493,.F.);
#632=ORIENTED_EDGE('',*,*,#494,.F.);
#633=ORIENTED_EDGE('',*,*,#495,.F.);
#634=ORIENTED_EDGE('',*,*,#496,.F.);
#635=ORIENTED_EDGE('',*,*,#497,.F.);
#636=ORIENTED_EDGE('',*,*,#498,.F.);
#637=ORIENTED_EDGE('',*,*,#434,.T.);
#638=ORIENTED_EDGE('',*,*,#440,.T.);
#639=ORIENTED_EDGE('',*,*,#446,.T.);
#640=ORIENTED_EDGE('',*,*,#452,.T.);
#641=ORIENTED_EDGE('',*,*,#455,.T.);
#642=ORIENTED_EDGE('',*,*,#464,.T.);
#643=ORIENTED_EDGE('',*,*,#461,.T.);
#644=ORIENTED_EDGE('',*,*,#458,.T.);
#645=ORIENTED_EDGE('',*,*,#467,.T.);
#646=ORIENTED_EDGE('',*,*,#476,.T.);
#647=ORIENTED_EDGE('',*,*,#473,.T.);
#648=ORIENTED_EDGE('',*,*,#470,.T.);
#649=ORIENTED_EDGE('',*,*,#477,.T.);
#650=ORIENTED_EDGE('',*,*,#499,.F.);
#651=ORIENTED_EDGE('',*,*,#500,.F.);
#652=ORIENTED_EDGE('',*,*,#501,.T.);
#653=ORIENTED_EDGE('',*,*,#498,.T.);
#654=ORIENTED_EDGE('',*,*,#502,.F.);
#655=ORIENTED_EDGE('',*,*,#503,.F.);
#656=ORIENTED_EDGE('',*,*,#499,.T.);
#657=ORIENTED_EDGE('',*,*,#497,.T.);
#658=ORIENTED_EDGE('',*,*,#504,.F.);
#659=ORIENTED_EDGE('',*,*,#505,.F.);
#660=ORIENTED_EDGE('',*,*,#502,.T.);
#661=ORIENTED_EDGE('',*,*,#496,.T.);
#662=ORIENTED_EDGE('',*,*,#506,.F.);
#663=ORIENTED_EDGE('',*,*,#507,.F.);
#664=ORIENTED_EDGE('',*,*,#504,.T.);
#665=ORIENTED_EDGE('',*,*,#495,.T.);
#666=ORIENTED_EDGE('',*,*,#508,.F.);
#667=ORIENTED_EDGE('',*,*,#509,.F.);
#668=ORIENTED_EDGE('',*,*,#506,.T.);
#669=ORIENTED_EDGE('',*,*,#494,.T.);
#670=ORIENTED_EDGE('',*,*,#510,.F.);
#671=ORIENTED_EDGE('',*,*,#511,.F.);
#672=ORIENTED_EDGE('',*,*,#508,.T.);
#673=ORIENTED_EDGE('',*,*,#493,.T.);
#674=ORIENTED_EDGE('',*,*,#512,.F.);
#675=ORIENTED_EDGE('',*,*,#513,.F.);
#676=ORIENTED_EDGE('',*,*,#510,.T.);
#677=ORIENTED_EDGE('',*,*,#492,.T.);
#678=ORIENTED_EDGE('',*,*,#514,.F.);
#679=ORIENTED_EDGE('',*,*,#515,.F.);
#680=ORIENTED_EDGE('',*,*,#512,.T.);
#681=ORIENTED_EDGE('',*,*,#491,.T.);
#682=ORIENTED_EDGE('',*,*,#516,.F.);
#683=ORIENTED_EDGE('',*,*,#517,.F.);
#684=ORIENTED_EDGE('',*,*,#514,.T.);
#685=ORIENTED_EDGE('',*,*,#490,.T.);
#686=ORIENTED_EDGE('',*,*,#518,.F.);
#687=ORIENTED_EDGE('',*,*,#519,.F.);
#688=ORIENTED_EDGE('',*,*,#516,.T.);
#689=ORIENTED_EDGE('',*,*,#489,.T.);
#690=ORIENTED_EDGE('',*,*,#520,.F.);
#691=ORIENTED_EDGE('',*,*,#521,.F.);
#692=ORIENTED_EDGE('',*,*,#518,.T.);
#693=ORIENTED_EDGE('',*,*,#488,.T.);
#694=ORIENTED_EDGE('',*,*,#522,.F.);
#695=ORIENTED_EDGE('',*,*,#523,.F.);
#696=ORIENTED_EDGE('',*,*,#520,.T.);
#697=ORIENTED_EDGE('',*,*,#487,.T.);
#698=ORIENTED_EDGE('',*,*,#524,.F.);
#699=ORIENTED_EDGE('',*,*,#525,.F.);
#700=ORIENTED_EDGE('',*,*,#522,.T.);
#701=ORIENTED_EDGE('',*,*,#486,.T.);
#702=ORIENTED_EDGE('',*,*,#526,.F.);
#703=ORIENTED_EDGE('',*,*,#527,.F.);
#704=ORIENTED_EDGE('',*,*,#524,.T.);
#705=ORIENTED_EDGE('',*,*,#485,.T.);
#706=ORIENTED_EDGE('',*,*,#528,.F.);
#707=ORIENTED_EDGE('',*,*,#529,.F.);
#708=ORIENTED_EDGE('',*,*,#526,.T.);
#709=ORIENTED_EDGE('',*,*,#484,.T.);
#710=ORIENTED_EDGE('',*,*,#530,.F.);
#711=ORIENTED_EDGE('',*,*,#531,.F.);
#712=ORIENTED_EDGE('',*,*,#528,.T.);
#713=ORIENTED_EDGE('',*,*,#483,.T.);
#714=ORIENTED_EDGE('',*,*,#532,.F.);
#715=ORIENTED_EDGE('',*,*,#533,.F.);
#716=ORIENTED_EDGE('',*,*,#530,.T.);
#717=ORIENTED_EDGE('',*,*,#482,.T.);
#718=ORIENTED_EDGE('',*,*,#534,.F.);
#719=ORIENTED_EDGE('',*,*,#535,.F.);
#720=ORIENTED_EDGE('',*,*,#532,.T.);
#721=ORIENTED_EDGE('',*,*,#481,.T.);
#722=ORIENTED_EDGE('',*,*,#536,.F.);
#723=ORIENTED_EDGE('',*,*,#537,.F.);
#724=ORIENTED_EDGE('',*,*,#534,.T.);
#725=ORIENTED_EDGE('',*,*,#480,.T.);
#726=ORIENTED_EDGE('',*,*,#538,.F.);
#727=ORIENTED_EDGE('',*,*,#539,.F.);
#728=ORIENTED_EDGE('',*,*,#536,.T.);
#729=ORIENTED_EDGE('',*,*,#479,.T.);
#730=ORIENTED_EDGE('',*,*,#540,.F.);
#731=ORIENTED_EDGE('',*,*,#541,.F.);
#732=ORIENTED_EDGE('',*,*,#538,.T.);
#733=ORIENTED_EDGE('',*,*,#478,.T.);
#734=ORIENTED_EDGE('',*,*,#501,.F.);
#735=ORIENTED_EDGE('',*,*,#542,.F.);
#736=ORIENTED_EDGE('',*,*,#540,.T.);
#737=ORIENTED_EDGE('',*,*,#500,.T.);
#738=ORIENTED_EDGE('',*,*,#503,.T.);
#739=ORIENTED_EDGE('',*,*,#505,.T.);
#740=ORIENTED_EDGE('',*,*,#507,.T.);
#741=ORIENTED_EDGE('',*,*,#509,.T.);
#742=ORIENTED_EDGE('',*,*,#511,.T.);
#743=ORIENTED_EDGE('',*,*,#513,.T.);
#744=ORIENTED_EDGE('',*,*,#515,.T.);
#745=ORIENTED_EDGE('',*,*,#517,.T.);
#746=ORIENTED_EDGE('',*,*,#519,.T.);
#747=ORIENTED_EDGE('',*,*,#521,.T.);
#748=ORIENTED_EDGE('',*,*,#523,.T.);
#749=ORIENTED_EDGE('',*,*,#525,.T.);
#750=ORIENTED_EDGE('',*,*,#527,.T.);
#751=ORIENTED_EDGE('',*,*,#529,.T.);
#752=ORIENTED_EDGE('',*,*,#531,.T.);
#753=ORIENTED_EDGE('',*,*,#533,.T.);
#754=ORIENTED_EDGE('',*,*,#535,.T.);
#755=ORIENTED_EDGE('',*,*,#537,.T.);
#756=ORIENTED_EDGE('',*,*,#539,.T.);
#757=ORIENTED_EDGE('',*,*,#541,.T.);
#758=ORIENTED_EDGE('',*,*,#542,.T.);
#759=ORIENTED_EDGE('',*,*,#429,.T.);
#760=ORIENTED_EDGE('',*,*,#435,.T.);
#761=ORIENTED_EDGE('',*,*,#441,.T.);
#762=ORIENTED_EDGE('',*,*,#447,.T.);
#763=ORIENTED_EDGE('',*,*,#453,.T.);
#764=ORIENTED_EDGE('',*,*,#457,.T.);
#765=ORIENTED_EDGE('',*,*,#460,.T.);
#766=ORIENTED_EDGE('',*,*,#463,.T.);
#767=ORIENTED_EDGE('',*,*,#465,.T.);
#768=ORIENTED_EDGE('',*,*,#469,.T.);
#769=ORIENTED_EDGE('',*,*,#472,.T.);
#770=ORIENTED_EDGE('',*,*,#475,.T.);
#771=CYLINDRICAL_SURFACE('',#847,1.8);
#772=CYLINDRICAL_SURFACE('',#850,1.1);
#773=CYLINDRICAL_SURFACE('',#853,1.8);
#774=CYLINDRICAL_SURFACE('',#856,1.1);
#775=CYLINDRICAL_SURFACE('',#859,1.8);
#776=CYLINDRICAL_SURFACE('',#862,1.1);
#777=CYLINDRICAL_SURFACE('',#865,1.8);
#778=CYLINDRICAL_SURFACE('',#868,1.1);
#779=CYLINDRICAL_SURFACE('',#894,99.9999999999937);
#780=CYLINDRICAL_SURFACE('',#897,99.9999999999939);
#781=CYLINDRICAL_SURFACE('',#900,78.);
#782=CYLINDRICAL_SURFACE('',#904,32.4999999999997);
#783=CYLINDRICAL_SURFACE('',#907,32.5000000000004);
#784=CYLINDRICAL_SURFACE('',#911,78.);
#785=CYLINDRICAL_SURFACE('',#914,100.000000000004);
#786=CYLINDRICAL_SURFACE('',#917,100.000000000004);
#787=CYLINDRICAL_SURFACE('',#920,34.9999999999991);
#788=CYLINDRICAL_SURFACE('',#923,34.9999999999994);
#789=ADVANCED_FACE('',(#57),#771,.F.);
#790=ADVANCED_FACE('',(#58),#772,.F.);
#791=ADVANCED_FACE('',(#59),#773,.F.);
#792=ADVANCED_FACE('',(#60),#774,.F.);
#793=ADVANCED_FACE('',(#61),#775,.F.);
#794=ADVANCED_FACE('',(#62),#776,.F.);
#795=ADVANCED_FACE('',(#63),#777,.F.);
#796=ADVANCED_FACE('',(#64),#778,.F.);
#797=ADVANCED_FACE('',(#65,#15),#31,.F.);
#798=ADVANCED_FACE('',(#66,#16),#32,.F.);
#799=ADVANCED_FACE('',(#67,#17),#33,.F.);
#800=ADVANCED_FACE('',(#68,#18),#34,.F.);
#801=ADVANCED_FACE('',(#69),#35,.F.);
#802=ADVANCED_FACE('',(#70),#36,.F.);
#803=ADVANCED_FACE('',(#71),#37,.F.);
#804=ADVANCED_FACE('',(#72),#38,.F.);
#805=ADVANCED_FACE('',(#73),#39,.F.);
#806=ADVANCED_FACE('',(#74),#40,.F.);
#807=ADVANCED_FACE('',(#75),#41,.F.);
#808=ADVANCED_FACE('',(#76),#42,.F.);
#809=ADVANCED_FACE('',(#77,#19,#20,#21,#22,#23,#24),#43,.F.);
#810=ADVANCED_FACE('',(#78),#779,.T.);
#811=ADVANCED_FACE('',(#79),#44,.F.);
#812=ADVANCED_FACE('',(#80),#780,.T.);
#813=ADVANCED_FACE('',(#81),#45,.F.);
#814=ADVANCED_FACE('',(#82),#781,.T.);
#815=ADVANCED_FACE('',(#83),#46,.F.);
#816=ADVANCED_FACE('',(#84),#47,.F.);
#817=ADVANCED_FACE('',(#85),#782,.T.);
#818=ADVANCED_FACE('',(#86),#48,.F.);
#819=ADVANCED_FACE('',(#87),#783,.T.);
#820=ADVANCED_FACE('',(#88),#49,.F.);
#821=ADVANCED_FACE('',(#89),#50,.F.);
#822=ADVANCED_FACE('',(#90),#784,.T.);
#823=ADVANCED_FACE('',(#91),#51,.F.);
#824=ADVANCED_FACE('',(#92),#785,.T.);
#825=ADVANCED_FACE('',(#93),#52,.F.);
#826=ADVANCED_FACE('',(#94),#786,.T.);
#827=ADVANCED_FACE('',(#95),#53,.F.);
#828=ADVANCED_FACE('',(#96),#787,.T.);
#829=ADVANCED_FACE('',(#97),#54,.F.);
#830=ADVANCED_FACE('',(#98),#788,.T.);
#831=ADVANCED_FACE('',(#99),#55,.F.);
#832=ADVANCED_FACE('',(#100,#25,#26,#27,#28,#29,#30),#56,.T.);
#833=CLOSED_SHELL('',(#789,#790,#791,#792,#793,#794,#795,#796,#797,#798,
#799,#800,#801,#802,#803,#804,#805,#806,#807,#808,#809,#810,#811,#812,#813,
#814,#815,#816,#817,#818,#819,#820,#821,#822,#823,#824,#825,#826,#827,#828,
#829,#830,#831,#832));
#834=DERIVED_UNIT_ELEMENT(#836,1.);
#835=DERIVED_UNIT_ELEMENT(#1407,-3.);
#836=(
MASS_UNIT()
NAMED_UNIT(*)
SI_UNIT(.KILO.,.GRAM.)
);
#837=DERIVED_UNIT((#834,#835));
#838=MEASURE_REPRESENTATION_ITEM('density measure',
POSITIVE_RATIO_MEASURE(7850.),#837);
#839=PROPERTY_DEFINITION_REPRESENTATION(#844,#841);
#840=PROPERTY_DEFINITION_REPRESENTATION(#845,#842);
#841=REPRESENTATION('material name',(#843),#1404);
#842=REPRESENTATION('density',(#838),#1404);
#843=DESCRIPTIVE_REPRESENTATION_ITEM('\X2\94A2\X0\','\X2\94A2\X0\');
#844=PROPERTY_DEFINITION('material property','material name',#1414);
#845=PROPERTY_DEFINITION('material property','density of part',#1414);
#846=AXIS2_PLACEMENT_3D('',#1167,#927,#928);
#847=AXIS2_PLACEMENT_3D('',#1168,#929,#930);
#848=AXIS2_PLACEMENT_3D('',#1170,#931,#932);
#849=AXIS2_PLACEMENT_3D('',#1173,#934,#935);
#850=AXIS2_PLACEMENT_3D('',#1174,#936,#937);
#851=AXIS2_PLACEMENT_3D('',#1176,#938,#939);
#852=AXIS2_PLACEMENT_3D('',#1179,#941,#942);
#853=AXIS2_PLACEMENT_3D('',#1180,#943,#944);
#854=AXIS2_PLACEMENT_3D('',#1182,#945,#946);
#855=AXIS2_PLACEMENT_3D('',#1185,#948,#949);
#856=AXIS2_PLACEMENT_3D('',#1186,#950,#951);
#857=AXIS2_PLACEMENT_3D('',#1188,#952,#953);
#858=AXIS2_PLACEMENT_3D('',#1191,#955,#956);
#859=AXIS2_PLACEMENT_3D('',#1192,#957,#958);
#860=AXIS2_PLACEMENT_3D('',#1194,#959,#960);
#861=AXIS2_PLACEMENT_3D('',#1197,#962,#963);
#862=AXIS2_PLACEMENT_3D('',#1198,#964,#965);
#863=AXIS2_PLACEMENT_3D('',#1200,#966,#967);
#864=AXIS2_PLACEMENT_3D('',#1203,#969,#970);
#865=AXIS2_PLACEMENT_3D('',#1204,#971,#972);
#866=AXIS2_PLACEMENT_3D('',#1206,#973,#974);
#867=AXIS2_PLACEMENT_3D('',#1209,#976,#977);
#868=AXIS2_PLACEMENT_3D('',#1210,#978,#979);
#869=AXIS2_PLACEMENT_3D('',#1212,#980,#981);
#870=AXIS2_PLACEMENT_3D('',#1215,#983,#984);
#871=AXIS2_PLACEMENT_3D('',#1216,#985,#986);
#872=AXIS2_PLACEMENT_3D('',#1217,#987,#988);
#873=AXIS2_PLACEMENT_3D('',#1218,#989,#990);
#874=AXIS2_PLACEMENT_3D('',#1219,#991,#992);
#875=AXIS2_PLACEMENT_3D('',#1220,#993,#994);
#876=AXIS2_PLACEMENT_3D('',#1229,#999,#1000);
#877=AXIS2_PLACEMENT_3D('',#1235,#1004,#1005);
#878=AXIS2_PLACEMENT_3D('',#1241,#1009,#1010);
#879=AXIS2_PLACEMENT_3D('',#1244,#1013,#1014);
#880=AXIS2_PLACEMENT_3D('',#1253,#1019,#1020);
#881=AXIS2_PLACEMENT_3D('',#1259,#1024,#1025);
#882=AXIS2_PLACEMENT_3D('',#1265,#1029,#1030);
#883=AXIS2_PLACEMENT_3D('',#1268,#1033,#1034);
#884=AXIS2_PLACEMENT_3D('',#1271,#1035,#1036);
#885=AXIS2_PLACEMENT_3D('',#1275,#1038,#1039);
#886=AXIS2_PLACEMENT_3D('',#1279,#1041,#1042);
#887=AXIS2_PLACEMENT_3D('',#1283,#1044,#1045);
#888=AXIS2_PLACEMENT_3D('',#1287,#1047,#1048);
#889=AXIS2_PLACEMENT_3D('',#1291,#1050,#1051);
#890=AXIS2_PLACEMENT_3D('',#1297,#1054,#1055);
#891=AXIS2_PLACEMENT_3D('',#1301,#1057,#1058);
#892=AXIS2_PLACEMENT_3D('',#1307,#1061,#1062);
#893=AXIS2_PLACEMENT_3D('',#1311,#1064,#1065);
#894=AXIS2_PLACEMENT_3D('',#1313,#1067,#1068);
#895=AXIS2_PLACEMENT_3D('',#1317,#1070,#1071);
#896=AXIS2_PLACEMENT_3D('',#1319,#1073,#1074);
#897=AXIS2_PLACEMENT_3D('',#1323,#1077,#1078);
#898=AXIS2_PLACEMENT_3D('',#1326,#1080,#1081);
#899=AXIS2_PLACEMENT_3D('',#1327,#1082,#1083);
#900=AXIS2_PLACEMENT_3D('',#1331,#1086,#1087);
#901=AXIS2_PLACEMENT_3D('',#1334,#1089,#1090);
#902=AXIS2_PLACEMENT_3D('',#1335,#1091,#1092);
#903=AXIS2_PLACEMENT_3D('',#1339,#1095,#1096);
#904=AXIS2_PLACEMENT_3D('',#1343,#1099,#1100);
#905=AXIS2_PLACEMENT_3D('',#1346,#1102,#1103);
#906=AXIS2_PLACEMENT_3D('',#1347,#1104,#1105);
#907=AXIS2_PLACEMENT_3D('',#1351,#1108,#1109);
#908=AXIS2_PLACEMENT_3D('',#1354,#1111,#1112);
#909=AXIS2_PLACEMENT_3D('',#1355,#1113,#1114);
#910=AXIS2_PLACEMENT_3D('',#1359,#1117,#1118);
#911=AXIS2_PLACEMENT_3D('',#1363,#1121,#1122);
#912=AXIS2_PLACEMENT_3D('',#1366,#1124,#1125);
#913=AXIS2_PLACEMENT_3D('',#1367,#1126,#1127);
#914=AXIS2_PLACEMENT_3D('',#1371,#1130,#1131);
#915=AXIS2_PLACEMENT_3D('',#1374,#1133,#1134);
#916=AXIS2_PLACEMENT_3D('',#1375,#1135,#1136);
#917=AXIS2_PLACEMENT_3D('',#1379,#1139,#1140);
#918=AXIS2_PLACEMENT_3D('',#1382,#1142,#1143);
#919=AXIS2_PLACEMENT_3D('',#1383,#1144,#1145);
#920=AXIS2_PLACEMENT_3D('',#1387,#1148,#1149);
#921=AXIS2_PLACEMENT_3D('',#1390,#1151,#1152);
#922=AXIS2_PLACEMENT_3D('',#1391,#1153,#1154);
#923=AXIS2_PLACEMENT_3D('',#1395,#1157,#1158);
#924=AXIS2_PLACEMENT_3D('',#1398,#1160,#1161);
#925=AXIS2_PLACEMENT_3D('',#1399,#1162,#1163);
#926=AXIS2_PLACEMENT_3D('',#1401,#1165,#1166);
#927=DIRECTION('axis',(0.,0.,1.));
#928=DIRECTION('refdir',(1.,0.,0.));
#929=DIRECTION('center_axis',(0.,0.,1.));
#930=DIRECTION('ref_axis',(-1.,0.,0.));
#931=DIRECTION('center_axis',(0.,0.,1.));
#932=DIRECTION('ref_axis',(-1.,0.,0.));
#933=DIRECTION('',(0.,0.,1.));
#934=DIRECTION('center_axis',(0.,0.,1.));
#935=DIRECTION('ref_axis',(-1.,0.,0.));
#936=DIRECTION('center_axis',(0.,0.,1.));
#937=DIRECTION('ref_axis',(-1.,0.,0.));
#938=DIRECTION('center_axis',(0.,0.,1.));
#939=DIRECTION('ref_axis',(-1.,0.,0.));
#940=DIRECTION('',(0.,0.,1.));
#941=DIRECTION('center_axis',(0.,0.,-1.));
#942=DIRECTION('ref_axis',(-1.,0.,0.));
#943=DIRECTION('center_axis',(0.,0.,1.));
#944=DIRECTION('ref_axis',(-1.,0.,0.));
#945=DIRECTION('center_axis',(0.,0.,1.));
#946=DIRECTION('ref_axis',(-1.,0.,0.));
#947=DIRECTION('',(0.,0.,1.));
#948=DIRECTION('center_axis',(0.,0.,1.));
#949=DIRECTION('ref_axis',(-1.,0.,0.));
#950=DIRECTION('center_axis',(0.,0.,1.));
#951=DIRECTION('ref_axis',(-1.,0.,0.));
#952=DIRECTION('center_axis',(0.,0.,1.));
#953=DIRECTION('ref_axis',(-1.,0.,0.));
#954=DIRECTION('',(0.,0.,1.));
#955=DIRECTION('center_axis',(0.,0.,-1.));
#956=DIRECTION('ref_axis',(-1.,0.,0.));
#957=DIRECTION('center_axis',(0.,0.,1.));
#958=DIRECTION('ref_axis',(-1.,0.,0.));
#959=DIRECTION('center_axis',(0.,0.,1.));
#960=DIRECTION('ref_axis',(-1.,0.,0.));
#961=DIRECTION('',(0.,0.,1.));
#962=DIRECTION('center_axis',(0.,0.,1.));
#963=DIRECTION('ref_axis',(-1.,0.,0.));
#964=DIRECTION('center_axis',(0.,0.,1.));
#965=DIRECTION('ref_axis',(-1.,0.,0.));
#966=DIRECTION('center_axis',(0.,0.,1.));
#967=DIRECTION('ref_axis',(-1.,0.,0.));
#968=DIRECTION('',(0.,0.,1.));
#969=DIRECTION('center_axis',(0.,0.,-1.));
#970=DIRECTION('ref_axis',(-1.,0.,0.));
#971=DIRECTION('center_axis',(0.,0.,1.));
#972=DIRECTION('ref_axis',(-1.,0.,0.));
#973=DIRECTION('center_axis',(0.,0.,1.));
#974=DIRECTION('ref_axis',(-1.,0.,0.));
#975=DIRECTION('',(0.,0.,1.));
#976=DIRECTION('center_axis',(0.,0.,1.));
#977=DIRECTION('ref_axis',(-1.,0.,0.));
#978=DIRECTION('center_axis',(0.,0.,1.));
#979=DIRECTION('ref_axis',(-1.,0.,0.));
#980=DIRECTION('center_axis',(0.,0.,1.));
#981=DIRECTION('ref_axis',(-1.,0.,0.));
#982=DIRECTION('',(0.,0.,1.));
#983=DIRECTION('center_axis',(0.,0.,-1.));
#984=DIRECTION('ref_axis',(-1.,0.,0.));
#985=DIRECTION('center_axis',(0.,0.,1.));
#986=DIRECTION('ref_axis',(-1.,0.,0.));
#987=DIRECTION('center_axis',(0.,0.,1.));
#988=DIRECTION('ref_axis',(-1.,0.,0.));
#989=DIRECTION('center_axis',(0.,0.,1.));
#990=DIRECTION('ref_axis',(-1.,0.,0.));
#991=DIRECTION('center_axis',(0.,0.,1.));
#992=DIRECTION('ref_axis',(-1.,0.,0.));
#993=DIRECTION('center_axis',(0.,-0.857167300702113,0.515038074910053));
#994=DIRECTION('ref_axis',(-1.,0.,0.));
#995=DIRECTION('',(1.,0.,0.));
#996=DIRECTION('',(-0.45787688840829,-0.45787688840829,-0.762035110820417));
#997=DIRECTION('',(-1.,0.,0.));
#998=DIRECTION('',(0.45787688840829,-0.45787688840829,-0.762035110820417));
#999=DIRECTION('center_axis',(0.857167300702113,0.,0.515038074910053));
#1000=DIRECTION('ref_axis',(0.,-1.,0.));
#1001=DIRECTION('',(0.,1.,0.));
#1002=DIRECTION('',(0.,-1.,0.));
#1003=DIRECTION('',(0.45787688840829,0.45787688840829,-0.762035110820417));
#1004=DIRECTION('center_axis',(0.,0.857167300702113,0.515038074910053));
#1005=DIRECTION('ref_axis',(1.,0.,0.));
#1006=DIRECTION('',(-1.,0.,0.));
#1007=DIRECTION('',(1.,0.,0.));
#1008=DIRECTION('',(-0.45787688840829,0.45787688840829,-0.762035110820417));
#1009=DIRECTION('center_axis',(-0.857167300702113,0.,0.515038074910053));
#1010=DIRECTION('ref_axis',(0.,1.,0.));
#1011=DIRECTION('',(0.,-1.,0.));
#1012=DIRECTION('',(0.,1.,0.));
#1013=DIRECTION('center_axis',(0.,-0.857167300702112,0.515038074910054));
#1014=DIRECTION('ref_axis',(-1.,0.,0.));
#1015=DIRECTION('',(1.,0.,0.));
#1016=DIRECTION('',(-0.45787688840829,-0.457876888408291,-0.762035110820416));
#1017=DIRECTION('',(-1.,0.,0.));
#1018=DIRECTION('',(0.45787688840829,-0.457876888408291,-0.762035110820416));
#1019=DIRECTION('center_axis',(0.857167300702113,0.,0.515038074910053));
#1020=DIRECTION('ref_axis',(0.,-1.,0.));
#1021=DIRECTION('',(0.,1.,0.));
#1022=DIRECTION('',(0.,-1.,0.));
#1023=DIRECTION('',(0.45787688840829,0.457876888408291,-0.762035110820416));
#1024=DIRECTION('center_axis',(0.,0.857167300702112,0.515038074910054));
#1025=DIRECTION('ref_axis',(1.,0.,0.));
#1026=DIRECTION('',(-1.,0.,0.));
#1027=DIRECTION('',(1.,0.,0.));
#1028=DIRECTION('',(-0.45787688840829,0.457876888408291,-0.762035110820416));
#1029=DIRECTION('center_axis',(-0.857167300702113,0.,0.515038074910053));
#1030=DIRECTION('ref_axis',(0.,1.,0.));
#1031=DIRECTION('',(0.,-1.,0.));
#1032=DIRECTION('',(0.,1.,0.));
#1033=DIRECTION('center_axis',(0.,0.,-1.));
#1034=DIRECTION('ref_axis',(-1.,0.,0.));
#1035=DIRECTION('center_axis',(0.,0.,-1.));
#1036=DIRECTION('ref_axis',(-1.,0.,0.));
#1037=DIRECTION('',(-0.499999999999984,0.866025403784448,0.));
#1038=DIRECTION('center_axis',(0.,0.,-1.));
#1039=DIRECTION('ref_axis',(-1.,0.,0.));
#1040=DIRECTION('',(-1.,0.,0.));
#1041=DIRECTION('center_axis',(0.,0.,-1.));
#1042=DIRECTION('ref_axis',(-1.,0.,0.));
#1043=DIRECTION('',(-0.500000000000521,-0.866025403784138,0.));
#1044=DIRECTION('center_axis',(0.,0.,-1.));
#1045=DIRECTION('ref_axis',(-1.,0.,0.));
#1046=DIRECTION('',(-0.421190101191593,-0.906972380317182,0.));
#1047=DIRECTION('center_axis',(0.,0.,-1.));
#1048=DIRECTION('ref_axis',(-1.,0.,0.));
#1049=DIRECTION('',(0.,-1.,0.));
#1050=DIRECTION('center_axis',(0.,0.,-1.));
#1051=DIRECTION('ref_axis',(-1.,0.,0.));
#1052=DIRECTION('',(0.47233965357604,-0.881416616396393,0.));
#1053=DIRECTION('',(0.49999999999998,-0.86602540378445,0.));
#1054=DIRECTION('center_axis',(0.,0.,-1.));
#1055=DIRECTION('ref_axis',(-1.,0.,0.));
#1056=DIRECTION('',(1.,4.21009789516278E-15,0.));
#1057=DIRECTION('center_axis',(0.,0.,-1.));
#1058=DIRECTION('ref_axis',(-1.,0.,0.));
#1059=DIRECTION('',(0.500000000000004,0.866025403784436,0.));
#1060=DIRECTION('',(0.472338377217921,0.881417300378851,0.));
#1061=DIRECTION('center_axis',(0.,0.,-1.));
#1062=DIRECTION('ref_axis',(-1.,0.,0.));
#1063=DIRECTION('',(0.,1.,0.));
#1064=DIRECTION('center_axis',(0.,0.,-1.));
#1065=DIRECTION('ref_axis',(-1.,0.,0.));
#1066=DIRECTION('',(-0.421188727345619,0.906973018318063,0.));
#1067=DIRECTION('center_axis',(0.,0.,1.));
#1068=DIRECTION('ref_axis',(1.,0.,0.));
#1069=DIRECTION('',(0.,0.,1.));
#1070=DIRECTION('center_axis',(0.,0.,-1.));
#1071=DIRECTION('ref_axis',(-1.,0.,0.));
#1072=DIRECTION('',(0.,0.,1.));
#1073=DIRECTION('center_axis',(0.906973018318063,0.421188727345619,0.));
#1074=DIRECTION('ref_axis',(-0.421188727345619,0.906973018318063,0.));
#1075=DIRECTION('',(0.,0.,1.));
#1076=DIRECTION('',(-0.421188727345619,0.906973018318063,0.));
#1077=DIRECTION('center_axis',(0.,0.,1.));
#1078=DIRECTION('ref_axis',(1.,0.,0.));
#1079=DIRECTION('',(0.,0.,1.));
#1080=DIRECTION('center_axis',(0.,0.,-1.));
#1081=DIRECTION('ref_axis',(-1.,0.,0.));
#1082=DIRECTION('center_axis',(1.,0.,0.));
#1083=DIRECTION('ref_axis',(0.,0.,-1.));
#1084=DIRECTION('',(0.,0.,1.));
#1085=DIRECTION('',(0.,1.,0.));
#1086=DIRECTION('center_axis',(0.,0.,1.));
#1087=DIRECTION('ref_axis',(1.,0.,0.));
#1088=DIRECTION('',(0.,0.,1.));
#1089=DIRECTION('center_axis',(0.,0.,-1.));
#1090=DIRECTION('ref_axis',(-1.,0.,0.));
#1091=DIRECTION('center_axis',(0.881417300378851,-0.472338377217921,0.));
#1092=DIRECTION('ref_axis',(0.472338377217921,0.881417300378851,0.));
#1093=DIRECTION('',(0.,0.,1.));
#1094=DIRECTION('',(0.472338377217921,0.881417300378851,0.));
#1095=DIRECTION('center_axis',(0.866025403784436,-0.500000000000004,0.));
#1096=DIRECTION('ref_axis',(0.500000000000004,0.866025403784436,0.));
#1097=DIRECTION('',(0.,0.,1.));
#1098=DIRECTION('',(0.500000000000004,0.866025403784436,0.));
#1099=DIRECTION('center_axis',(0.,0.,1.));
#1100=DIRECTION('ref_axis',(1.,0.,0.));
#1101=DIRECTION('',(0.,0.,1.));
#1102=DIRECTION('center_axis',(0.,0.,-1.));
#1103=DIRECTION('ref_axis',(-1.,0.,0.));
#1104=DIRECTION('center_axis',(4.21009789516278E-15,-1.,0.));
#1105=DIRECTION('ref_axis',(1.,4.21009789516278E-15,0.));
#1106=DIRECTION('',(0.,0.,1.));
#1107=DIRECTION('',(1.,4.21009789516278E-15,0.));
#1108=DIRECTION('center_axis',(0.,0.,1.));
#1109=DIRECTION('ref_axis',(1.,0.,0.));
#1110=DIRECTION('',(0.,0.,1.));
#1111=DIRECTION('center_axis',(0.,0.,-1.));
#1112=DIRECTION('ref_axis',(-1.,0.,0.));
#1113=DIRECTION('center_axis',(-0.86602540378445,-0.49999999999998,0.));
#1114=DIRECTION('ref_axis',(0.49999999999998,-0.86602540378445,0.));
#1115=DIRECTION('',(0.,0.,1.));
#1116=DIRECTION('',(0.49999999999998,-0.86602540378445,0.));
#1117=DIRECTION('center_axis',(-0.881416616396393,-0.47233965357604,0.));
#1118=DIRECTION('ref_axis',(0.47233965357604,-0.881416616396393,0.));
#1119=DIRECTION('',(0.,0.,1.));
#1120=DIRECTION('',(0.47233965357604,-0.881416616396393,0.));
#1121=DIRECTION('center_axis',(0.,0.,1.));
#1122=DIRECTION('ref_axis',(1.,0.,0.));
#1123=DIRECTION('',(0.,0.,1.));
#1124=DIRECTION('center_axis',(0.,0.,-1.));
#1125=DIRECTION('ref_axis',(-1.,0.,0.));
#1126=DIRECTION('center_axis',(-1.,0.,0.));
#1127=DIRECTION('ref_axis',(0.,0.,1.));
#1128=DIRECTION('',(0.,0.,1.));
#1129=DIRECTION('',(0.,-1.,0.));
#1130=DIRECTION('center_axis',(0.,0.,1.));
#1131=DIRECTION('ref_axis',(1.,0.,0.));
#1132=DIRECTION('',(0.,0.,1.));
#1133=DIRECTION('center_axis',(0.,0.,-1.));
#1134=DIRECTION('ref_axis',(-1.,0.,0.));
#1135=DIRECTION('center_axis',(-0.906972380317182,0.421190101191593,0.));
#1136=DIRECTION('ref_axis',(-0.421190101191593,-0.906972380317182,0.));
#1137=DIRECTION('',(0.,0.,1.));
#1138=DIRECTION('',(-0.421190101191593,-0.906972380317182,0.));
#1139=DIRECTION('center_axis',(0.,0.,1.));
#1140=DIRECTION('ref_axis',(1.,0.,0.));
#1141=DIRECTION('',(0.,0.,1.));
#1142=DIRECTION('center_axis',(0.,0.,-1.));
#1143=DIRECTION('ref_axis',(-1.,0.,0.));
#1144=DIRECTION('center_axis',(-0.866025403784138,0.500000000000521,0.));
#1145=DIRECTION('ref_axis',(-0.500000000000521,-0.866025403784138,0.));
#1146=DIRECTION('',(0.,0.,1.));
#1147=DIRECTION('',(-0.500000000000521,-0.866025403784138,0.));
#1148=DIRECTION('center_axis',(0.,0.,1.));
#1149=DIRECTION('ref_axis',(1.,0.,0.));
#1150=DIRECTION('',(0.,0.,1.));
#1151=DIRECTION('center_axis',(0.,0.,-1.));
#1152=DIRECTION('ref_axis',(-1.,0.,0.));
#1153=DIRECTION('center_axis',(0.,1.,0.));
#1154=DIRECTION('ref_axis',(0.,0.,1.));
#1155=DIRECTION('',(0.,0.,1.));
#1156=DIRECTION('',(-1.,0.,0.));
#1157=DIRECTION('center_axis',(0.,0.,1.));
#1158=DIRECTION('ref_axis',(1.,0.,0.));
#1159=DIRECTION('',(0.,0.,1.));
#1160=DIRECTION('center_axis',(0.,0.,-1.));
#1161=DIRECTION('ref_axis',(-1.,0.,0.));
#1162=DIRECTION('center_axis',(0.866025403784448,0.499999999999984,0.));
#1163=DIRECTION('ref_axis',(-0.499999999999984,0.866025403784448,0.));
#1164=DIRECTION('',(-0.499999999999984,0.866025403784448,0.));
#1165=DIRECTION('center_axis',(0.,0.,-1.));
#1166=DIRECTION('ref_axis',(-1.,0.,0.));
#1167=CARTESIAN_POINT('',(0.,0.,0.));
#1168=CARTESIAN_POINT('Origin',(135.881084771041,-41.9867005571298,-13.1));
#1169=CARTESIAN_POINT('',(137.681084771041,-41.9867005571298,-13.7));
#1170=CARTESIAN_POINT('Origin',(135.881084771041,-41.9867005571298,-13.7));
#1171=CARTESIAN_POINT('',(137.681084771041,-41.9867005571298,-12.5));
#1172=CARTESIAN_POINT('',(137.681084771041,-41.9867005571298,-13.1));
#1173=CARTESIAN_POINT('Origin',(135.881084771041,-41.9867005571298,-12.5));
#1174=CARTESIAN_POINT('Origin',(135.881084771041,-41.9867005571298,-11.2));
#1175=CARTESIAN_POINT('',(136.981084771041,-41.9867005571298,-12.5));
#1176=CARTESIAN_POINT('Origin',(135.881084771041,-41.9867005571298,-12.5));
#1177=CARTESIAN_POINT('',(136.981084771041,-41.9867005571298,-9.7));
#1178=CARTESIAN_POINT('',(136.981084771041,-41.9867005571298,-11.2));
#1179=CARTESIAN_POINT('Origin',(135.881084771041,-41.9867005571298,-9.7));
#1180=CARTESIAN_POINT('Origin',(215.881084771041,-41.9867005571299,-13.1));
#1181=CARTESIAN_POINT('',(217.681084771041,-41.9867005571299,-13.7));
#1182=CARTESIAN_POINT('Origin',(215.881084771041,-41.9867005571299,-13.7));
#1183=CARTESIAN_POINT('',(217.681084771041,-41.9867005571299,-12.5));
#1184=CARTESIAN_POINT('',(217.681084771041,-41.9867005571299,-13.1));
#1185=CARTESIAN_POINT('Origin',(215.881084771041,-41.9867005571299,-12.5));
#1186=CARTESIAN_POINT('Origin',(215.881084771041,-41.9867005571299,-11.2));
#1187=CARTESIAN_POINT('',(216.981084771041,-41.9867005571299,-12.5));
#1188=CARTESIAN_POINT('Origin',(215.881084771041,-41.9867005571299,-12.5));
#1189=CARTESIAN_POINT('',(216.981084771041,-41.9867005571299,-9.7));
#1190=CARTESIAN_POINT('',(216.981084771041,-41.9867005571299,-11.2));
#1191=CARTESIAN_POINT('Origin',(215.881084771041,-41.9867005571299,-9.7));
#1192=CARTESIAN_POINT('Origin',(135.881084771041,-162.98670055713,-13.1));
#1193=CARTESIAN_POINT('',(137.681084771041,-162.98670055713,-13.7));
#1194=CARTESIAN_POINT('Origin',(135.881084771041,-162.98670055713,-13.7));
#1195=CARTESIAN_POINT('',(137.681084771041,-162.98670055713,-12.5));
#1196=CARTESIAN_POINT('',(137.681084771041,-162.98670055713,-13.1));
#1197=CARTESIAN_POINT('Origin',(135.881084771041,-162.98670055713,-12.5));
#1198=CARTESIAN_POINT('Origin',(135.881084771041,-162.98670055713,-11.2));
#1199=CARTESIAN_POINT('',(136.981084771041,-162.98670055713,-12.5));
#1200=CARTESIAN_POINT('Origin',(135.881084771041,-162.98670055713,-12.5));
#1201=CARTESIAN_POINT('',(136.981084771041,-162.98670055713,-9.7));
#1202=CARTESIAN_POINT('',(136.981084771041,-162.98670055713,-11.2));
#1203=CARTESIAN_POINT('Origin',(135.881084771041,-162.98670055713,-9.7));
#1204=CARTESIAN_POINT('Origin',(215.881084771041,-162.98670055713,-13.1));
#1205=CARTESIAN_POINT('',(217.681084771041,-162.98670055713,-13.7));
#1206=CARTESIAN_POINT('Origin',(215.881084771041,-162.98670055713,-13.7));
#1207=CARTESIAN_POINT('',(217.681084771041,-162.98670055713,-12.5));
#1208=CARTESIAN_POINT('',(217.681084771041,-162.98670055713,-13.1));
#1209=CARTESIAN_POINT('Origin',(215.881084771041,-162.98670055713,-12.5));
#1210=CARTESIAN_POINT('Origin',(215.881084771041,-162.98670055713,-11.2));
#1211=CARTESIAN_POINT('',(216.981084771041,-162.98670055713,-12.5));
#1212=CARTESIAN_POINT('Origin',(215.881084771041,-162.98670055713,-12.5));
#1213=CARTESIAN_POINT('',(216.981084771041,-162.98670055713,-9.7));
#1214=CARTESIAN_POINT('',(216.981084771041,-162.98670055713,-11.2));
#1215=CARTESIAN_POINT('Origin',(215.881084771041,-162.98670055713,-9.7));
#1216=CARTESIAN_POINT('Origin',(135.881084771041,-162.98670055713,-12.5));
#1217=CARTESIAN_POINT('Origin',(215.881084771041,-162.98670055713,-12.5));
#1218=CARTESIAN_POINT('Origin',(135.881084771041,-41.9867005571298,-12.5));
#1219=CARTESIAN_POINT('Origin',(215.881084771041,-41.9867005571299,-12.5));
#1220=CARTESIAN_POINT('Origin',(167.805968519704,-200.19739335828,-9.7));
#1221=CARTESIAN_POINT('',(165.402526043594,-202.60083583439,-13.7));
#1222=CARTESIAN_POINT('',(186.359410995814,-202.60083583439,-13.7));
#1223=CARTESIAN_POINT('',(199.34352664537,-202.60083583439,-13.7));
#1224=CARTESIAN_POINT('',(167.805968519704,-200.19739335828,-9.7));
#1225=CARTESIAN_POINT('',(169.184425455174,-198.81893642281,-7.4058624049929));
#1226=CARTESIAN_POINT('',(183.955968519704,-200.19739335828,-9.7));
#1227=CARTESIAN_POINT('',(199.34352664537,-200.19739335828,-9.7));
#1228=CARTESIAN_POINT('',(182.263034716826,-198.504459555402,-6.88248500689244));
#1229=CARTESIAN_POINT('Origin',(183.955968519704,-200.19739335828,-9.7));
#1230=CARTESIAN_POINT('',(186.359410995814,-184.64395088217,-13.7));
#1231=CARTESIAN_POINT('',(186.359410995814,-176.093683720356,-13.7));
#1232=CARTESIAN_POINT('',(183.955968519704,-187.04739335828,-9.7));
#1233=CARTESIAN_POINT('',(183.955968519704,-176.093683720356,-9.7));
#1234=CARTESIAN_POINT('',(182.577511584234,-188.42585029375,-7.4058624049929));
#1235=CARTESIAN_POINT('Origin',(183.955968519704,-187.04739335828,-9.7));
#1236=CARTESIAN_POINT('',(165.402526043594,-184.64395088217,-13.7));
#1237=CARTESIAN_POINT('',(207.418526645369,-184.64395088217,-13.7));
#1238=CARTESIAN_POINT('',(167.805968519704,-187.04739335828,-9.7));
#1239=CARTESIAN_POINT('',(207.418526645369,-187.04739335828,-9.7));
#1240=CARTESIAN_POINT('',(169.498902322582,-188.740327161158,-6.88248500689244));
#1241=CARTESIAN_POINT('Origin',(167.805968519704,-187.04739335828,-9.7));
#1242=CARTESIAN_POINT('',(165.402526043594,-169.518683720356,-13.7));
#1243=CARTESIAN_POINT('',(167.805968519704,-169.518683720356,-9.7));
#1244=CARTESIAN_POINT('Origin',(167.805968519704,-28.1803933582803,-9.7));
#1245=CARTESIAN_POINT('',(165.402526043594,-30.5838358343906,-13.7));
#1246=CARTESIAN_POINT('',(186.359410995814,-30.5838358343906,-13.7));
#1247=CARTESIAN_POINT('',(199.34352664537,-30.5838358343906,-13.7));
#1248=CARTESIAN_POINT('',(167.805968519704,-28.1803933582803,-9.7));
#1249=CARTESIAN_POINT('',(169.184425455174,-26.80193642281,-7.4058624049929));
#1250=CARTESIAN_POINT('',(183.955968519704,-28.1803933582803,-9.7));
#1251=CARTESIAN_POINT('',(199.34352664537,-28.1803933582803,-9.7));
#1252=CARTESIAN_POINT('',(182.263034716826,-26.4874595554023,-6.88248500689244));
#1253=CARTESIAN_POINT('Origin',(183.955968519704,-28.1803933582803,-9.7));
#1254=CARTESIAN_POINT('',(186.359410995814,-12.6269508821701,-13.7));
#1255=CARTESIAN_POINT('',(186.359410995814,-90.0851837203562,-13.7));
#1256=CARTESIAN_POINT('',(183.955968519704,-15.0303933582803,-9.7));
#1257=CARTESIAN_POINT('',(183.955968519704,-90.0851837203562,-9.7));
#1258=CARTESIAN_POINT('',(182.577511584234,-16.4088502937507,-7.4058624049929));
#1259=CARTESIAN_POINT('Origin',(183.955968519704,-15.0303933582803,-9.7));
#1260=CARTESIAN_POINT('',(165.402526043594,-12.6269508821701,-13.7));
#1261=CARTESIAN_POINT('',(207.418526645369,-12.6269508821701,-13.7));
#1262=CARTESIAN_POINT('',(167.805968519704,-15.0303933582803,-9.7));
#1263=CARTESIAN_POINT('',(207.418526645369,-15.0303933582803,-9.7));
#1264=CARTESIAN_POINT('',(169.498902322582,-16.7233271611584,-6.88248500689244));
#1265=CARTESIAN_POINT('Origin',(167.805968519704,-15.0303933582803,-9.7));
#1266=CARTESIAN_POINT('',(165.402526043594,-83.5101837203562,-13.7));
#1267=CARTESIAN_POINT('',(167.805968519704,-83.5101837203562,-9.7));
#1268=CARTESIAN_POINT('Origin',(230.881084771035,-151.989974082432,-9.7));
#1269=CARTESIAN_POINT('',(144.278544392597,-201.98997408243,-9.7));
#1270=CARTESIAN_POINT('',(142.012103275855,-197.840864237456,-9.7));
#1271=CARTESIAN_POINT('Origin',(230.881084771035,-151.989974082432,-9.7));
#1272=CARTESIAN_POINT('',(145.026455060223,-203.285393358281,-9.7));
#1273=CARTESIAN_POINT('',(145.026455060223,-203.285393358281,-9.7));
#1274=CARTESIAN_POINT('',(175.337344192678,-220.78539335828,-9.7));
#1275=CARTESIAN_POINT('Origin',(175.337344192678,-185.785393358281,-9.7));
#1276=CARTESIAN_POINT('',(176.42511404344,-220.78539335828,-9.7));
#1277=CARTESIAN_POINT('',(176.42511404344,-220.78539335828,-9.7));
#1278=CARTESIAN_POINT('',(206.736003175895,-203.28539335828,-9.7));
#1279=CARTESIAN_POINT('Origin',(176.42511404344,-185.785393358281,-9.7));
#1280=CARTESIAN_POINT('',(207.483625149485,-201.990474115169,-9.7));
#1281=CARTESIAN_POINT('',(207.483625149485,-201.990474115169,-9.7));
#1282=CARTESIAN_POINT('',(209.750003032386,-197.841486830901,-9.7));
#1283=CARTESIAN_POINT('Origin',(120.881084771037,-151.990474115167,-9.7));
#1284=CARTESIAN_POINT('',(213.250003032386,-190.304739594607,-9.7));
#1285=CARTESIAN_POINT('',(209.750003032386,-197.841486830901,-9.7));
#1286=CARTESIAN_POINT('',(220.881084771041,-151.990474115168,-9.7));
#1287=CARTESIAN_POINT('Origin',(120.881084771037,-151.990474115167,-9.7));
#1288=CARTESIAN_POINT('',(220.881084771041,-54.9867005571299,-9.7));
#1289=CARTESIAN_POINT('',(220.881084771041,-54.9867005571299,-9.7));
#1290=CARTESIAN_POINT('',(213.250003032386,-21.3382928276677,-9.7));
#1291=CARTESIAN_POINT('Origin',(142.881084771041,-54.9867005571299,-9.7));
#1292=CARTESIAN_POINT('',(209.750003032386,-14.8070644329491,-9.7));
#1293=CARTESIAN_POINT('',(213.250003032386,-21.3382928276677,-9.7));
#1294=CARTESIAN_POINT('',(205.263026645373,-7.0353933582805,-9.7));
#1295=CARTESIAN_POINT('',(205.263026645373,-7.03539335828036,-9.7));
#1296=CARTESIAN_POINT('',(177.117201022378,9.21460664171967,-9.7));
#1297=CARTESIAN_POINT('Origin',(177.117201022378,-23.2853933582805,-9.7));
#1298=CARTESIAN_POINT('',(174.644968519704,9.21460664171958,-9.7));
#1299=CARTESIAN_POINT('',(174.644968519704,9.21460664171966,-9.7));
#1300=CARTESIAN_POINT('',(146.49914289671,-7.03539335828038,-9.7));
#1301=CARTESIAN_POINT('Origin',(174.644968519704,-23.2853933582801,-9.7));
#1302=CARTESIAN_POINT('',(142.012103275855,-14.8071739571758,-9.7));
#1303=CARTESIAN_POINT('',(142.012103275855,-14.8071739571758,-9.7));
#1304=CARTESIAN_POINT('',(138.512103275855,-21.3384250689242,-9.7));
#1305=CARTESIAN_POINT('',(138.512103275855,-21.3384250689242,-9.7));
#1306=CARTESIAN_POINT('',(130.881084771041,-54.9867005571298,-9.7));
#1307=CARTESIAN_POINT('Origin',(208.881084771041,-54.9867005571297,-9.7));
#1308=CARTESIAN_POINT('',(130.881084771041,-151.989974082432,-9.7));
#1309=CARTESIAN_POINT('',(130.881084771041,-151.98997408243,-9.7));
#1310=CARTESIAN_POINT('',(138.512103275855,-190.304087115906,-9.7));
#1311=CARTESIAN_POINT('Origin',(230.881084771035,-151.989974082432,-9.7));
#1312=CARTESIAN_POINT('',(138.512103275855,-190.304087115906,-9.7));
#1313=CARTESIAN_POINT('Origin',(230.881084771035,-151.989974082432,-13.7));
#1314=CARTESIAN_POINT('',(142.012103275855,-197.840864237456,-13.7));
#1315=CARTESIAN_POINT('',(142.012103275855,-197.840864237456,-13.7));
#1316=CARTESIAN_POINT('',(144.278544392597,-201.98997408243,-13.7));
#1317=CARTESIAN_POINT('Origin',(230.881084771035,-151.989974082432,-13.7));
#1318=CARTESIAN_POINT('',(144.278544392597,-201.98997408243,-13.7));
#1319=CARTESIAN_POINT('Origin',(138.512103275855,-190.304087115906,-13.7));
#1320=CARTESIAN_POINT('',(138.512103275855,-190.304087115906,-13.7));
#1321=CARTESIAN_POINT('',(138.512103275855,-190.304087115906,-13.7));
#1322=CARTESIAN_POINT('',(138.512103275855,-190.304087115906,-13.7));
#1323=CARTESIAN_POINT('Origin',(230.881084771035,-151.989974082432,-13.7));
#1324=CARTESIAN_POINT('',(130.881084771041,-151.989974082432,-13.7));
#1325=CARTESIAN_POINT('',(130.881084771041,-151.989974082432,-13.7));
#1326=CARTESIAN_POINT('Origin',(230.881084771035,-151.989974082432,-13.7));
#1327=CARTESIAN_POINT('Origin',(130.881084771041,-151.98997408243,-13.7));
#1328=CARTESIAN_POINT('',(130.881084771041,-54.9867005571298,-13.7));
#1329=CARTESIAN_POINT('',(130.881084771041,-54.9867005571298,-13.7));
#1330=CARTESIAN_POINT('',(130.881084771041,-151.98997408243,-13.7));
#1331=CARTESIAN_POINT('Origin',(208.881084771041,-54.9867005571297,-13.7));
#1332=CARTESIAN_POINT('',(138.512103275855,-21.3384250689242,-13.7));
#1333=CARTESIAN_POINT('',(138.512103275855,-21.3384250689242,-13.7));
#1334=CARTESIAN_POINT('Origin',(208.881084771041,-54.9867005571297,-13.7));
#1335=CARTESIAN_POINT('Origin',(138.512103275855,-21.3384250689242,-13.7));
#1336=CARTESIAN_POINT('',(142.012103275855,-14.8071739571758,-13.7));
#1337=CARTESIAN_POINT('',(142.012103275855,-14.8071739571758,-13.7));
#1338=CARTESIAN_POINT('',(138.512103275855,-21.3384250689242,-13.7));
#1339=CARTESIAN_POINT('Origin',(142.012103275855,-14.8071739571758,-13.7));
#1340=CARTESIAN_POINT('',(146.49914289671,-7.03539335828038,-13.7));
#1341=CARTESIAN_POINT('',(146.49914289671,-7.03539335828038,-13.7));
#1342=CARTESIAN_POINT('',(142.012103275855,-14.8071739571758,-13.7));
#1343=CARTESIAN_POINT('Origin',(174.644968519704,-23.2853933582801,-13.7));
#1344=CARTESIAN_POINT('',(174.644968519704,9.21460664171958,-13.7));
#1345=CARTESIAN_POINT('',(174.644968519704,9.21460664171958,-13.7));
#1346=CARTESIAN_POINT('Origin',(174.644968519704,-23.2853933582801,-13.7));
#1347=CARTESIAN_POINT('Origin',(174.644968519704,9.21460664171966,-13.7));
#1348=CARTESIAN_POINT('',(177.117201022378,9.21460664171967,-13.7));
#1349=CARTESIAN_POINT('',(177.117201022378,9.21460664171967,-13.7));
#1350=CARTESIAN_POINT('',(174.644968519704,9.21460664171966,-13.7));
#1351=CARTESIAN_POINT('Origin',(177.117201022378,-23.2853933582805,-13.7));
#1352=CARTESIAN_POINT('',(205.263026645373,-7.0353933582805,-13.7));
#1353=CARTESIAN_POINT('',(205.263026645373,-7.0353933582805,-13.7));
#1354=CARTESIAN_POINT('Origin',(177.117201022378,-23.2853933582805,-13.7));
#1355=CARTESIAN_POINT('Origin',(205.263026645373,-7.03539335828036,-13.7));
#1356=CARTESIAN_POINT('',(209.750003032386,-14.8070644329491,-13.7));
#1357=CARTESIAN_POINT('',(209.750003032386,-14.8070644329491,-13.7));
#1358=CARTESIAN_POINT('',(205.263026645373,-7.03539335828036,-13.7));
#1359=CARTESIAN_POINT('Origin',(213.250003032386,-21.3382928276677,-13.7));
#1360=CARTESIAN_POINT('',(213.250003032386,-21.3382928276677,-13.7));
#1361=CARTESIAN_POINT('',(213.250003032386,-21.3382928276677,-13.7));
#1362=CARTESIAN_POINT('',(213.250003032386,-21.3382928276677,-13.7));
#1363=CARTESIAN_POINT('Origin',(142.881084771041,-54.9867005571299,-13.7));
#1364=CARTESIAN_POINT('',(220.881084771041,-54.9867005571299,-13.7));
#1365=CARTESIAN_POINT('',(220.881084771041,-54.9867005571299,-13.7));
#1366=CARTESIAN_POINT('Origin',(142.881084771041,-54.9867005571299,-13.7));
#1367=CARTESIAN_POINT('Origin',(220.881084771041,-54.9867005571299,-13.7));
#1368=CARTESIAN_POINT('',(220.881084771041,-151.990474115168,-13.7));
#1369=CARTESIAN_POINT('',(220.881084771041,-151.990474115168,-13.7));
#1370=CARTESIAN_POINT('',(220.881084771041,-54.9867005571299,-13.7));
#1371=CARTESIAN_POINT('Origin',(120.881084771037,-151.990474115167,-13.7));
#1372=CARTESIAN_POINT('',(213.250003032386,-190.304739594607,-13.7));
#1373=CARTESIAN_POINT('',(213.250003032386,-190.304739594607,-13.7));
#1374=CARTESIAN_POINT('Origin',(120.881084771037,-151.990474115167,-13.7));
#1375=CARTESIAN_POINT('Origin',(209.750003032386,-197.841486830901,-13.7));
#1376=CARTESIAN_POINT('',(209.750003032386,-197.841486830901,-13.7));
#1377=CARTESIAN_POINT('',(209.750003032386,-197.841486830901,-13.7));
#1378=CARTESIAN_POINT('',(209.750003032386,-197.841486830901,-13.7));
#1379=CARTESIAN_POINT('Origin',(120.881084771037,-151.990474115167,-13.7));
#1380=CARTESIAN_POINT('',(207.483625149485,-201.990474115169,-13.7));
#1381=CARTESIAN_POINT('',(207.483625149485,-201.990474115169,-13.7));
#1382=CARTESIAN_POINT('Origin',(120.881084771037,-151.990474115167,-13.7));
#1383=CARTESIAN_POINT('Origin',(207.483625149485,-201.990474115169,-13.7));
#1384=CARTESIAN_POINT('',(206.736003175895,-203.28539335828,-13.7));
#1385=CARTESIAN_POINT('',(206.736003175895,-203.28539335828,-13.7));
#1386=CARTESIAN_POINT('',(207.483625149485,-201.990474115169,-13.7));
#1387=CARTESIAN_POINT('Origin',(176.42511404344,-185.785393358281,-13.7));
#1388=CARTESIAN_POINT('',(176.42511404344,-220.78539335828,-13.7));
#1389=CARTESIAN_POINT('',(176.42511404344,-220.78539335828,-13.7));
#1390=CARTESIAN_POINT('Origin',(176.42511404344,-185.785393358281,-13.7));
#1391=CARTESIAN_POINT('Origin',(176.42511404344,-220.78539335828,-13.7));
#1392=CARTESIAN_POINT('',(175.337344192678,-220.78539335828,-13.7));
#1393=CARTESIAN_POINT('',(175.337344192678,-220.78539335828,-13.7));
#1394=CARTESIAN_POINT('',(176.42511404344,-220.78539335828,-13.7));
#1395=CARTESIAN_POINT('Origin',(175.337344192678,-185.785393358281,-13.7));
#1396=CARTESIAN_POINT('',(145.026455060223,-203.285393358281,-13.7));
#1397=CARTESIAN_POINT('',(145.026455060223,-203.285393358281,-13.7));
#1398=CARTESIAN_POINT('Origin',(175.337344192678,-185.785393358281,-13.7));
#1399=CARTESIAN_POINT('Origin',(145.026455060223,-203.285393358281,-13.7));
#1400=CARTESIAN_POINT('',(145.026455060223,-203.285393358281,-13.7));
#1401=CARTESIAN_POINT('Origin',(230.881084771035,-151.989974082432,-13.7));
#1402=UNCERTAINTY_MEASURE_WITH_UNIT(LENGTH_MEASURE(0.01),#1406,
'DISTANCE_ACCURACY_VALUE',
'Maximum model space distance between geometric entities at asserted c
onnectivities');
#1403=UNCERTAINTY_MEASURE_WITH_UNIT(LENGTH_MEASURE(0.01),#1406,
'DISTANCE_ACCURACY_VALUE',
'Maximum model space distance between geometric entities at asserted c
onnectivities');
#1404=(
GEOMETRIC_REPRESENTATION_CONTEXT(3)
GLOBAL_UNCERTAINTY_ASSIGNED_CONTEXT((#1402))
GLOBAL_UNIT_ASSIGNED_CONTEXT((#1406,#1408,#1409))
REPRESENTATION_CONTEXT('','3D')
);
#1405=(
GEOMETRIC_REPRESENTATION_CONTEXT(3)
GLOBAL_UNCERTAINTY_ASSIGNED_CONTEXT((#1403))
GLOBAL_UNIT_ASSIGNED_CONTEXT((#1406,#1408,#1409))
REPRESENTATION_CONTEXT('','3D')
);
#1406=(
LENGTH_UNIT()
NAMED_UNIT(*)
SI_UNIT(.MILLI.,.METRE.)
);
#1407=(
LENGTH_UNIT()
NAMED_UNIT(*)
SI_UNIT($,.METRE.)
);
#1408=(
NAMED_UNIT(*)
PLANE_ANGLE_UNIT()
SI_UNIT($,.RADIAN.)
);
#1409=(
NAMED_UNIT(*)
SI_UNIT($,.STERADIAN.)
SOLID_ANGLE_UNIT()
);
#1410=SHAPE_DEFINITION_REPRESENTATION(#1411,#1412);
#1411=PRODUCT_DEFINITION_SHAPE('',$,#1414);
#1412=SHAPE_REPRESENTATION('',(#846),#1404);
#1413=PRODUCT_DEFINITION_CONTEXT('part definition',#1418,'design');
#1414=PRODUCT_DEFINITION('\X2\88C5914D5C42FF08\X0\2\X2\5BF9630294A9\X0\+
T\X2\578B51F969FDFF09\X0\-\X2\5E95677F\X0\','(\X2\672A4FDD5B58\X0\)',#1415,
#1413);
#1415=PRODUCT_DEFINITION_FORMATION('',$,#1420);
#1416=PRODUCT_RELATED_PRODUCT_CATEGORY('(\X2\672A4FDD5B58\X0\)',
'(\X2\672A4FDD5B58\X0\)',(#1420));
#1417=APPLICATION_PROTOCOL_DEFINITION('international standard',
'automotive_design',2009,#1418);
#1418=APPLICATION_CONTEXT(
'Core Data for Automotive Mechanical Design Process');
#1419=PRODUCT_CONTEXT('part definition',#1418,'mechanical');
#1420=PRODUCT('\X2\88C5914D5C42FF08\X0\2\X2\5BF9630294A9\X0\+T\X2\578B51F969FDFF09\X0\-
\X2\5E95677F\X0\','(\X2\672A4FDD5B58\X0\)','STEP AP214',(#1419));
#1421=PRESENTATION_STYLE_ASSIGNMENT((#1423));
#1422=PRESENTATION_STYLE_ASSIGNMENT((#1424));
#1423=SURFACE_STYLE_USAGE(.BOTH.,#1425);
#1424=SURFACE_STYLE_USAGE(.BOTH.,#1426);
#1425=SURFACE_SIDE_STYLE('',(#1427));
#1426=SURFACE_SIDE_STYLE('',(#1428));
#1427=SURFACE_STYLE_FILL_AREA(#1429);
#1428=SURFACE_STYLE_FILL_AREA(#1430);
#1429=FILL_AREA_STYLE('\X2\94A2\X0\ - \X2\7F0E5149\X0\',(#1431));
#1430=FILL_AREA_STYLE('Opaque(228,228,228)',(#1432));
#1431=FILL_AREA_STYLE_COLOUR('\X2\94A2\X0\ - \X2\7F0E5149\X0\',#1433);
#1432=FILL_AREA_STYLE_COLOUR('Opaque(228,228,228)',#1434);
#1433=COLOUR_RGB('\X2\94A2\X0\ - \X2\7F0E5149\X0\',0.627450980392157,0.627450980392157,
0.627450980392157);
#1434=COLOUR_RGB('Opaque(228,228,228)',0.894117647058824,0.894117647058824,
0.894117647058824);
ENDSEC;
END-ISO-10303-21;
